<mxfile host="65bd71144e">
    <diagram id="nP-OY_wl-n511qJIP8V6" name="Page-1">
        <mxGraphModel dx="1412" dy="807" grid="1" gridSize="10" guides="1" tooltips="1" connect="1" arrows="1" fold="1" page="1" pageScale="1" pageWidth="1169" pageHeight="827" math="1" shadow="0">
            <root>
                <mxCell id="0"/>
                <mxCell id="1" parent="0"/>
                <mxCell id="3" value="" style="edgeStyle=none;rounded=0;jumpStyle=none;html=1;shadow=0;labelBackgroundColor=none;startArrow=none;startFill=0;endArrow=classic;endFill=1;jettySize=auto;orthogonalLoop=1;strokeColor=#2F5B7C;strokeWidth=3;fontFamily=Helvetica;fontSize=16;fontColor=#23445D;spacing=5;" parent="1" source="5" target="12" edge="1">
                    <mxGeometry relative="1" as="geometry"/>
                </mxCell>
                <mxCell id="4" value="" style="edgeStyle=none;rounded=0;jumpStyle=none;html=1;shadow=0;labelBackgroundColor=none;startArrow=none;startFill=0;endArrow=classic;endFill=1;jettySize=auto;orthogonalLoop=1;strokeColor=#2F5B7C;strokeWidth=3;fontFamily=Helvetica;fontSize=16;fontColor=#23445D;spacing=5;" parent="1" source="5" target="9" edge="1">
                    <mxGeometry relative="1" as="geometry"/>
                </mxCell>
                <mxCell id="5" value="Waves" style="rounded=1;whiteSpace=wrap;html=1;shadow=0;labelBackgroundColor=none;strokeColor=none;strokeWidth=3;fillColor=#2F5B7C;fontFamily=Helvetica;fontSize=16;fontColor=#FFFFFF;align=center;fontStyle=1;spacing=5;arcSize=7;perimeterSpacing=2;" parent="1" vertex="1">
                    <mxGeometry x="1082" y="810" width="150" height="70" as="geometry"/>
                </mxCell>
                <mxCell id="6" value="" style="edgeStyle=none;rounded=1;jumpStyle=none;html=1;shadow=0;labelBackgroundColor=none;startArrow=none;startFill=0;jettySize=auto;orthogonalLoop=1;strokeColor=#E85642;strokeWidth=3;fontFamily=Helvetica;fontSize=14;fontColor=#FFFFFF;spacing=5;fontStyle=1;fillColor=#b0e3e6;entryX=1;entryY=0.5;entryDx=0;entryDy=0;" parent="1" source="9" target="25" edge="1">
                    <mxGeometry relative="1" as="geometry">
                        <mxPoint x="763.6412213740459" y="746" as="targetPoint"/>
                    </mxGeometry>
                </mxCell>
                <mxCell id="9" value="Sound Waves" style="rounded=1;whiteSpace=wrap;html=1;shadow=0;labelBackgroundColor=none;strokeColor=none;strokeWidth=3;fillColor=#e85642;fontFamily=Helvetica;fontSize=14;fontColor=#FFFFFF;align=center;spacing=5;fontStyle=1;arcSize=7;perimeterSpacing=2;" parent="1" vertex="1">
                    <mxGeometry x="802" y="815" width="150" height="60" as="geometry"/>
                </mxCell>
                <mxCell id="12" value="About Waves" style="rounded=1;whiteSpace=wrap;html=1;shadow=0;labelBackgroundColor=none;strokeColor=none;strokeWidth=3;fillColor=#12aab5;fontFamily=Helvetica;fontSize=14;fontColor=#FFFFFF;align=center;spacing=5;fontStyle=1;arcSize=7;perimeterSpacing=2;" parent="1" vertex="1">
                    <mxGeometry x="1382" y="815" width="150" height="60" as="geometry"/>
                </mxCell>
                <mxCell id="15" value="" style="edgeStyle=none;rounded=1;jumpStyle=none;html=1;shadow=0;labelBackgroundColor=none;startArrow=none;startFill=0;jettySize=auto;orthogonalLoop=1;strokeColor=#12AAB5;strokeWidth=3;fontFamily=Helvetica;fontSize=14;fontColor=#FFFFFF;spacing=5;fontStyle=1;fillColor=#b0e3e6;entryX=0;entryY=0.5;entryDx=0;entryDy=0;exitX=1;exitY=0.5;exitDx=0;exitDy=0;" parent="1" source="12" target="20" edge="1">
                    <mxGeometry relative="1" as="geometry">
                        <mxPoint x="1590" y="806.3666666666668" as="targetPoint"/>
                    </mxGeometry>
                </mxCell>
                <mxCell id="16" value="" style="edgeStyle=none;rounded=1;jumpStyle=none;html=1;shadow=0;labelBackgroundColor=none;startArrow=none;startFill=0;jettySize=auto;orthogonalLoop=1;strokeColor=#12AAB5;strokeWidth=3;fontFamily=Helvetica;fontSize=14;fontColor=#FFFFFF;spacing=5;fontStyle=1;fillColor=#b0e3e6;entryX=0;entryY=1;entryDx=0;entryDy=0;exitX=0.75;exitY=0;exitDx=0;exitDy=0;" parent="1" source="12" target="17" edge="1">
                    <mxGeometry relative="1" as="geometry">
                        <mxPoint x="1518.843971631206" y="736" as="targetPoint"/>
                    </mxGeometry>
                </mxCell>
                <mxCell id="17" value="Type of Waves" style="swimlane;gradientColor=none;strokeColor=#61C6CE;startSize=23;fillColor=#00BFBF;fontColor=#000000;" parent="1" vertex="1">
                    <mxGeometry x="1550" y="230" width="440" height="180" as="geometry"/>
                </mxCell>
                <mxCell id="18" value="Transverse waves and longitudinal waves" style="rounded=1;whiteSpace=wrap;html=1;shadow=0;labelBackgroundColor=none;strokeColor=none;strokeWidth=3;fillColor=#61c6ce;fontFamily=Helvetica;fontSize=14;align=center;spacing=5;fontStyle=0;arcSize=7;perimeterSpacing=2;fontColor=#000000;" parent="17" vertex="1">
                    <mxGeometry x="9" y="30" width="421" height="40" as="geometry"/>
                </mxCell>
                <mxCell id="19" value="Mechanical waves and electromagnetic waves" style="rounded=1;whiteSpace=wrap;html=1;shadow=0;labelBackgroundColor=none;strokeColor=none;strokeWidth=3;fillColor=#61c6ce;fontFamily=Helvetica;fontSize=14;align=center;spacing=5;fontStyle=0;arcSize=7;perimeterSpacing=2;fontColor=#000000;" parent="17" vertex="1">
                    <mxGeometry x="9" y="80" width="421" height="40" as="geometry"/>
                </mxCell>
                <mxCell id="129" value="Progressive&amp;nbsp;" style="rounded=1;whiteSpace=wrap;html=1;shadow=0;labelBackgroundColor=none;strokeColor=none;strokeWidth=3;fillColor=#61c6ce;fontFamily=Helvetica;fontSize=14;align=center;spacing=5;fontStyle=0;arcSize=7;perimeterSpacing=2;fontColor=#000000;" parent="17" vertex="1">
                    <mxGeometry x="9.63" y="130" width="420.37" height="40" as="geometry"/>
                </mxCell>
                <mxCell id="20" value="Graphs" style="swimlane;gradientColor=none;strokeColor=#61C6CE;startSize=23;fillColor=#00BFBF;fontColor=#000000;" parent="1" vertex="1">
                    <mxGeometry x="1590" y="450" width="650" height="220" as="geometry"/>
                </mxCell>
                <mxCell id="136" value="y-t graph" style="swimlane;gradientColor=none;strokeColor=#61C6CE;startSize=23;fillColor=#00BFBF;fontColor=#000000;" parent="20" vertex="1">
                    <mxGeometry x="330" y="30" width="310" height="180" as="geometry"/>
                </mxCell>
                <mxCell id="134" value="y-x graph" style="swimlane;gradientColor=none;strokeColor=#61C6CE;startSize=23;fillColor=#00BFBF;fontColor=#000000;" parent="20" vertex="1">
                    <mxGeometry x="10" y="30" width="310" height="180" as="geometry"/>
                </mxCell>
                <mxCell id="201" value="" style="shape=image;verticalLabelPosition=bottom;labelBackgroundColor=#ffffff;verticalAlign=top;aspect=fixed;imageAspect=0;image=data:image/png,iVBORw0KGgoAAAANSUhEUgAAAYkAAAC/CAIAAACE67fuAAAgAElEQVR4Aey9B5xcxZEwLnPRh3w+f777zvnv89mfD3Ag2hgZA5JINsEkYRAgRBASBoQkEEFkDEeUySgiiaCAFkkgESQUVqvd1eadzZM2zeY8O/Ny6Pf/VVe/3tndmdk3G2fkeT/QvunXoaq6urq6urp6mpV+0hRIUyBNgeSjwLTkAykNUZoCaQqkKWClZVOaCdIUSFMgGSmQlk3J2CtpmNIUSFMgLZvSPJCmQJoCyUiBtGxKxl5Jw5SmQJoCkyGbCCGWZZGhD6Yl1gVDqhpNFYk1mM6dpkCaAlNDgYmXTVQwcdFkEWKaJogphq/9N0H0UdAlWCidPU2BNAVShgITLpuILZaQJAOiiOlSiVGK6U3mQDWojyVWSzp3mgJpCiQ9BcYkm7jywpdrkWs3tuACRQm0pPZG/6GcCqW/4dOM90p8bRooT0yFGlJPZCW8ZnzBAv3t3t2ff9kelLAKmj/pKZ0GME2BNAUSocCYZNOQhogVoc7Y36hkIpYh7NnwwvNv7zA7jtxz0+/f+aJUNi2LSS3ICqLHLsL/8rSBr1REKX11T65YsutQmWURwzBotuGleTXplzQF0hRIPQqMSTahLmNZlq6piqKZhmlZlmmYiiyrmo4CB5WmDnfOw7f8aUdmhaUHSwsLGzv6VUM3CLFMrbujrbO71zAtQpi93LIsQ1MlWbMsKxTs7QvJQFdT6e7s6A+LFpWAhz96+/GV78rEIqZBlanUI30a4jQF0hSIQ4ExySbTNA0D1mb5mbtfePdQd1gjhHS11Dz6v2/vLW4mxDLgs2WZ8v73n7nk4uurO1Wju2rd63/J8QR8Na4Xnvjr8w8+vPC2G+ctXHq0ugnkD30sy2qsyH76vgdXPPboogW33bXswS3bPlz99OPzrr/24f99rTmoE2I1u3MWLHqkuEECQUalUxwk05/SFEhTIOUoMCbZRIhpGKAf5Wx/60e/vOZgZYtlWdnb3j7p7Bv2uXsti+i6TixL6/e9svSi6+94UiSWUPPxr3/0Dy99fCTr4/d++C8nXXbV4tVr377qgrPvf3FN2IRFnmHA6qxiz6r/nDbtaz+e+dCjj5z1k+/+4Ps/vfJP9z771MNnnX7uE6uzCSFqX2Dx/HlrPnPBxh8VTilH+jTAaQqkKRCHAmOSTdRiZILhSGz+9Sm/mPPUTlULP/fYA0+t3k9NSKZhGBYh3Z6sRaf87o4/v0cIEb37zz/te299fvTIZxnz7njOFwbY8j7duOLl11pBBwITlGVZvs/e/uU3f/7CpwHLsrY9dss5p87Pqtcty3roppuvXbQBxKEeWrbktlteyAA7OwHdLQ6S6U9pCqQpkHIUGJNsQguRCdLJev6W2aedt7imtuzhJbfsdTURE6SMSZd0ba69N57x+3uf202IJXj2zTr5W298mpP52Ue33/9Wu2zqmnb48w+eentdm8icnyzLqvnkjZO/8+t1uZ2mIe1cuej6BS94uixd73/o5ptvXvI+GKJMYdmyP1//+BaQjBaaw1OO+GmA0xRIUyAmBcYkm6hZGtZUhBDXrpdmnjXj/vvvXHDD4qYeBd2aDPqpr/Hokt/PuH3xWgP0pi9nnfLtNz/LPfxZxm1LX22RTGKRw5+99+Sba9oi9Cb37jdP+c4Zb2e1EaJ89PKd1931bE03IST80M03z7v3PdCbtP57Fy+4+dm03hSza9Mf0hRIaQqMUTYB7oSA7iK0ld5+3gn/8HfTrrvrcR0S4DENw7IssaPqqRvPm7/oBdWyRO/e3530zdf2ZB/cve2mu/7aJIHOlfnppkdfe7tVpLt8dLOv6uPXfvr1X75xqM2ylO0vLrh6wdM13cSyQvfNnXvdXRsNQkyha8nCa5/YuM+yt+pSuhvSwKcpkKbAEAqMVTZR70eUQ8qe1xd+81s/fGHTF1RemYSu68AUpIU+XvvQ1dfMC/QRraXgzzde8lFORUnuoadf+bBTBjtRae4X67bv7AJXAWZvqsvKmHPhLR+5ei1LO/jB/654fkND0LIs6c1nn3p85V6TWJ21pQvn3bvP1UqLpNd0Q7o1/TNNgZSnwDjIJhBPxLKM8Lqlt8y86I6y5hB4D4A3ADVTU+N2b0PRE7fN3fJ5Kd28A8cm5stEbdjoJ8VfqS5G04C89kdahvoYQOGDW//6l5UfwOLO1Aedz0v5HkkjkKZAmgJAgbHKJtOEVZsWrH9yyXU//vr37nv+M0EHN0rmDwnulCijlIM733rm+VW4bAN5Myr6Yzmpu/zxe2/Yc7DCIkSnLpyjqixdKE2BNAWSlwJjl02waFN6ah9fvuTJN94PwBk3PIvCVCO65gINKtQROJqTr+MRODwXZ+tGtmrEtKRIZWm43kQICbbW7P1yX09YxsowT/LSOA1ZmgJpCiROgbHKJtSAQJ2xFSEmaEBgADjoZ8B+sI09WyYlDi7qTTwMAW0X0xKvK10iTYE0BZKYAmOVTZGogd0JZRXKJPaNCS2UWfAlssxo38e3ttFCkS6XpkCaAhNFgbHKJpRFKClseUH/RgCMig3LwxdpERmcvw6qym7VefF0zjQF0hRIFQqMVTalCp5pONMUSFMgtSiQlk2p1V9paNMU+FuhwJTJJntBBn9x145vz/2t0D6NZ5oCaQrEpsCUyabYIKX2l6FmNfobtylTfkMRceEWQ4Yq/MF5JaV7jmMRgVYEaqN0yEtpkkwx8FMmmzgHfPH550uWLu3s7LQ9NhlDTDFhxtY84EAd4hma1HWdDeCU5XLcYEXUuFMI89un5Epd4TtEMPHOx+4br81lXm36xQkFpkw24TpOluXly5dPnz69rKwMzr3YUeKAV1JuDDM5BH+Q9HAK2n7nmgX6pDrpm+TKg45qdr8AFppGaOxAgJPiznFMLshHgoYLJt5ZxDCIrtFD7Aw5hmBEb45Ua/r7WCkwZbIJGUIQhCVLlx7/j/+Yt3OnJQp4MQHjlbGiNtnlUSChzNUlSS4rDebnbnrlld3r1+l1taYOLvGAWmryNwgj++CiWl8v5uXIHrdUlC8cPaL19fGvk030cWqP9gy49OqhkFxZJleUy16PVFmhdnQwrGmQMjbnjFOj6WriU2CKZZMoikuXLJk+ffrR9zcZrhKlpwcWQ6k4hm21gsncwvz+jWvr9u077+yzb7n88tCGtWJ+LjtLaK/v4ndMcn2l2EEQQUL0rq6eVW+E9+81hLDW2tK3Y3so84Ah2oEBU1D48pNPhiT1f/pJcGeG0tJsCILs9QQ/2aE2NFB+hH9SdF5JLl5yDE2yyKbioiKz1h8uKjAEgU/COM4d4zKVGQFme8NR7w+Fc46oba0HMzN/+MMfnvW7c8KlJf2b39W6u9nqh07CUwlugm0jdoSCLWQdEo4eoSMVatFDoXBOllRVYdI4gqA2Jlj5lGdHVReC0DfUBz/+SO/ugm6iYInFBcE9H+t9ffax0JRDbsqpO3oAkkA2LV16/PHHl5S6LGKFC/Nln5fGVgHHgtGjNfklqWBCmJX6er2lxbCsBx988J/+6Z/+64c/dPv8RlMglHvE1DQw+dOJePJhHF2LqC8gaoYghLMO4pzBL8XR+vuF/KNaEwR3R90qVSaVIQqRXF2lB/sQCyawLAskb2UlqsWYODoypkslSoEkkE10TVdcXAwTV0+PWFKk9/Uif6QSi2NkKWIZ/UGpqpKoanZOzs9+9rNp9HnkkUcg/meZS21uZgOY6lmJ9tbk58cuYDYXXZc9brUZbuviSiIOb7WtVXQVm4oKP3FSSX6zmg0hil2tq1PxecEKbj8oZw1JkirLjDDcuoE5U4UtJ59bxrfFJJBNS5dOnz69pKTEIsSwLK21VfH7kD2QFcYX4QmqDWdUU9Ok8jLF57Usa9/evX/+858vuOCCWbNm/XXlSrhzRlVkd42pKIjdBEEy7tWCtIFhTNSmgFhaZMoy9/bgUwgxTTXQqLc2c60w+Rc/bKFKsTNkScjL4UoT0pB3k9rZqdbX2SIr+TEbdxaYmgqTSTbReclQFNldbepwlwpjDnt+mxoKjdQqZ1liWWp7u1CYr4si3HYlCl1dXRkZGbt27erv7wdkLEvxedHqxG0cI1U/xd+5fmTIslhSpDY1Ib5cg8CVHdxC2N2l1NXCV5qUAmbjyGW41yO6iiOVJlSOIlSnCoN2a3pZN2kcmVyyyaD+MkqtT+vrRSbnVslJo8goGsKBauq6VFMtV1fBTca2sezgwYPZ2dmABd3kUpsCcq0fl0gsT3JLXj4UYdVWVAD7cRQ7kEGUUlyr0gVBdtcYqFXRzkty8cQWqoSYuh7OzVZtexnvO8CUokkMQ66u1CIWs0mO2ih4OAmLJJds0uldm1pnh1Th4mMAqJbMA5gqEhCYuKsTjGUhqiIx8xPZv3//4cOH7QFsGeGQVFqkUYMaKiDJvEJACKEjNE10FauBAIxbG1/eKUwHNE25qlLx+bDjcFQnIcdzkOCyDTqFqA31UmkRdbakuNnzCvyguFmEqK1tYkmRqapMnee1pF8mjALJJZtQbzIVRSzK1zo7bN5IZsnEPBJN01R8XtkPIxOHNCoWBw4cyMrKQr0JeV121ygeN9FYdGI+wiesi8dUMeKiBQJSWRnoRNwD0+4TzICDXOvsEIry9VA/dlxKoGbIMsDc1jYwF9qoAeFs+WXKslRRjotWFNBjImu6sAMKJJdsMg0DHQhkd7VUWgzsgqdYktXtbUAhUhWpwqX39TF5ajtYctnEuRzUq6J8QxCYRdmepR101uRmoVIHhY5YmK821Ed6SA8BBSUUMQyxME8NNHB/KHvlNyT71P9EgJm2W5Q/4LVvezYhiNxeDqpTU0DMPzoItUgpNvU4HWsQJJdsMuCecnDe01qbhaPZpsq2tDAxOWmPKxojHJKrKyPdl4bqTVSfgr1ISRKKC7WWVtSw6BZYMmKGVjMQtZoqFORpvT2oWQys6WyoEVO8J1WuqZKqq0xdh8zJPXSx47SmJqm6CmdB7JFB6h5FAXJalt7XJxTk6XRbI8lRs3smtf8ml2wybe8SqmkXaIFGHA+oTCUdpZm2ACYjrbMTNAt88NwZZetIvYl91HWl1i9VVaAfEAzs5BzDFFzw/O7pAYdYGW61gSdaN0A6xVrv6xOL8sGRmtlqomaPVsXkpnFUlNparRvus0f4h0OBOamM1qXKCsXjHr6wHV4qnTJ2CiSZbGKjGjzCFZ9XKi1GjuGcNHaEx7EGrvAT01Tq6/RecBnlrDxEbxr4ZBEjGBRLCnV6eBDyjyNM41RVJBZqoFFtb+cpsSQpZoDLl8tK1cbGgfzjBNI4VsNhMxVZ9nmtiLkkaiscNa2lRSjMMzXbxTQZuy4qBimZmIyyCY9k6aIgFObpQbhrnM5qyXeEBQ2lhBjhsFRZZir8vjwmoSzLGtCbIrAwdV32eelJCGD7WKN9ahkKHZcsy1Jr/SB2KbLx1zK4SlI72qXKCoLLumS1pjFQuzrBvB3h8xGV5syHiy5vxcJ8rRmcvGAjMlmxi4pFyiUmp2wCq5NlEbG4UG1rRcGUhOoFOhkSQrSuLrGshK/R+LQ8XDZxNVBraRYLjuKKFQom2QzMUTB1XfF5wTECVcLYo5ErF4YsiS6XKUm8kqQaFQgV8x5obNAcqHgoidDqJJWVyO6aAVNDUuF2bAGTjLIJWAEcnSzF61EbG/hqKNkoj0d2iWXJtX44pwIKEHOZ4QN1iN7Ed+vALuMqwfMrSegKxJQmQvSeHsXjMVVYxYy4d47KCDHg2B1uWSbhjMLmA0JMVZXdNVpHBzJYfO7CecgiRGtukt01fI6JXyr9dSwUSEbZBLxCTQCGIMDxS6pTJB2XU/EDjK5rQl4u2lNxcEYK0yGyacBEpWlqQ/3AwEgqvSlC4ZFrqtH6y+ROXF7jolltb9NaW7gUiFtosj9yIPXuLrG4kOt3ceAA3rNpYhqgSBqixCRaUnVcHBxS8FMyyiZkBdS6Za/H4DtEycMHVFIiu4LDYcFRQ5JQ7iAP4KfhazpkcURN6+xQA7bNmMriJOEfjoihqkJxgdpIg6sZBoA3Uhcg4nowqNTW4gTD5XUyYIeCiQJpKrW1YpmLr8Tjg4f7FWwlWF+n9UIQRHjiF0t/HQMFklE2wRBA6wYhSl0t388aA5rjXBQ40l7jyFWVsscNHj00BdmV8+0QvQlUCfxGiNbdrdbVsXVgUjG5jYjW3QWncPrpdoQD6WljBj5ccGBbgsN3yTZ+ER5TkaXKMrUpwGEegUV4PkLUQEClK8ERF7kj1Jn+HJcCSSqbUL+ATaKGBqWFxTxKIi7nnGpZ4dxsrbWVC1OkNn6PojfZy1VCiB4Myj4vbBLZtcXtqcn7yMCxLKW+Tiwpgp/U/uQEAjbydV2qKIc9VlvMOSk7CXm43qSHQkLBUb2vFzsOFaIRAUAlS2tp0ex4DIBvUs0rI+KQOhmSVTbZ863a1gbhnKhPZrKsDmwGx4i0Ql4uahaR/B1HNnGxa8qy4nWzGMT2GOYFExXEmJ+JlYg/I2suNDNmw3KIiKlpck217IVYVM4pz1o2TdldzbWSSMpM7dDgiCitLWJJIZ4Q5IkjwobY6b09it8HcayQMiMWS2cYFQWSXTYZ4ZBY5kIvp/jONaNCfzSFUNOB8UYIXMhRXYXvyLhYI38fvqbjZ0EIIRBGsq4WlQscIbzgyDIlEnZ76sbikf9yeGJVyC0mvBS6IqoRCzrnlB/wimpvE4uL8PBKonI2ErPxfWcS3DSl8lIw9lFUnYtOzGmqKgST6OpijlE28ccX1HRtyS6bTFUVivLV9jbQvR2YPCajR3EQUw9RITtLbagbDhtmibqmQ70JT58pXrfkgmDEtiqGhqyBf52jE33805rpAWougoZVSfMMpFJYYDUdaBSL8ulH9s9AnthvPL8eDIZzspzsgsWubPy/IHimIodzsniMMEx00piNnQWed4FG7Epc6Dkpns6TEAWSWjbhiIXYFPUQUDFJjBdcRMKp3bwcrasT4KRsy0nP2X243oR5sBKtuUksLTYVBVYHhi739/X1BrWBiNX2WHDwF9Uu09D6erpFSdEUKRwOKdQ5m7VoVxK5fIM0qupAsHZJaG3tkFUN9yFkOPRXid8xJbr44zjbL9iOIYpicZHWMfJhF7vchP+1CUDAxl+Uj/dWOUSKA8f0ZZ8XwivTcE5Dup7nTL+MkQLJK5tQfyaEKA31Uk0VuP/ZRqgx4jzG4hiTDAZze7tYzGwW9hhmdeMwiK43USxwlaT39wvFhWp3FyEk1Fv30F3zfn/jkk9rQhCuAKLFDFJ2In9GvmOT2KLc4176p5vX7aqsyN4594oHdn1ZT7Te6gq3rEJggKilQBml9zY15e+65dbHC+shoLCp6YrXYwz4KEEjTujP6WDqmuL1yDXVhAxEAR0j5cdenEmW2lqpCjgqIVNapExX29vA1BAOA9lj+8qPHeC/5RqSVzbx4U2Pthfwg3XDB9gk9x8HTPX76NgD7uSJCAz/GV1vogwNpUxTLCmUa/2WZeVsf/Pb06dP+8d/v3zxOpkGrjJ0TTdM09B7e3rDIh1IutbX1ydr4GpEG4XB1d/b3d3Tq+iQqLYWzPrGdxa9mtVeV/L6ys1F5e3d3i8W3POAvxXOIauqyiS+aWiqqhso+4gUDgqK5fvyhTN+e+3+anoqUFH6CvM6G5tEKtQsqhc63JBC3EF2t7WKebkDOtdgUTvJvcYlC1x4U5CntTRzOBPiKCxliqJQXMBdZxOqYfIRT9EWk1o24SwHpsfyMn69Ko6uKSQ352nZU6O12N7PgydPzBNLb8JxgojIfq9UVUPE7uUL5l9x6zNvPLvwH/7z1I/LIMZIQ8mnj91/x9wb5s2dc+UVf7rjf998+5nH77rqyjm3LHyx2NtnqP2v/GXpTTfdOP/mG6+48op77n+5PSiT7uIrf/Dj+zbkNroyn3jsze0frnnuvtlf/88fLX70E0/poeX3PH2kFG5w6vEeevCe+Z8UBUytb8eap2/803Xzbll47UWn/mTWbTm14JRUfXjnrX+8+Lrrb7zmmj+9m/EFGtScLl7oMtGyLCPULxYVaD0QgcRp2YnrV5wPCIFLGYoLjH44IYgMllCbKIaIacqeGsXnw6B0o6gnoUb/NjMnr2xiEx3VIJSGOgh4RF2Tp3yOQgBg1ePz6P39bKVDpRHnoRFlE2IH0RS7OtWqmmBN9s03XLbmQGVr+Z4ffOX45a/sJoS4D6w95b+m//Q3F32w7oULTvi3v//6f1x584IXnl5xygknL3/7kCT0Xfyr7/3w5HM2Znyy/pXlvz31rPd2l1py1aXf+sF9m/JLdrx5ygmXv7gxY8/G+088/Zx3drq8h9771U9nfXAAwg+1FW078QfTX/vMVZO784yfnHj+FQ9sWL/m7B995+9+caurXddCtStuuvCWO5d9vHvnvXNmzzr/soZuAWSNMy8nJAjsYamqVFnGbvQyTQxFwkk0yS+4uwpuH719stvNb+IatGx2ABOfmbTmJqncjlM85UzpAPKUy5K8sonOc2yxpHV2CgVH8cTplLMBcqcpSRBxjV6+AHbowT0/omxC7IhFDEU1K8uqPl79x+vvzmsIW0HvvF99/eJ5D1uW5Tv4zvnnnPby+19alr7p8Su+/qOztuc2KT3eedddeP0TW3u6Ou+48apVe0qhZaPvjUdufOyVd9RQ7RXf/v6yjQWVn6z93a/nbDxcLwYO/WnRfW2i2pH/4axTf/9hls+ySHvxzlP/59tr9hVtePyxs86+M88PSsT7T9/17z/7U3mX5Tu8fubZZx84UmroenvFF5f+8bIdmRUETGBgpR+MaLRfFHncw1K8Hh5beYrtMrZQ0Vpb1EBgYJ5zglEEltxJQg9CGEyDmpzSelMEhcbtNXllE9Ob6FrJEAS43aC7m6kb44Z+4hXhwIMIrb1KfYT3wGAWH1E2ISIYC8aoLl5795yTzrho2YqnnnniwYt/891f/OaChm7Bn7nhj78/e3tmuUms7W8snvHH+fWCpfb65994+U1Pbutoa3ts+SOeHl03QGjs3fziX9asD/d4r/jOD5ZtzK/4ePVvz5iz/pBPaDp43cJlzSG5Pf/DmadcvDXTYxpGh+vj00787qrd2a888cyfHtwcplX4v3x5xuwbcuq1nPcfOumE/7lt0V0rVqx4ePldF1x5/ecFiXtgUnmttbeL+bkD4RYGUylx6o++BLcJwhFr6prE+yihSnkpWBu6SrSurkhGTaiqdOb4FEhq2cQlkampssctez3IGY5m7/h4j/YrWl4gZlNri9aM19hGCXrHOTi6LdxunZiGRUhn/o4/XnTua9u+bG1urPY1NFZlzp1z+Tt7yhpy3//j72dsO1hKCNn66p/PveqmRtmSe7w3z73kxie3dbS3Prh0WWkbbMBZlrXrjSf/8tp6pd9/1Xd/cN8m0JvO/tW172T6woH9N9z9QJest+dt+93Jl32UU2dZVsP+TSd+//+s+SL/5eWPXLVwTYgqQ0e3P/v/Tr+uqNnI3LTswj9e09AZ1DTdlHuP5uU0tLLrAh1Snm79AQ3g8qjiQnZNObX926hP6l/sDjTwqXW1/DCNc5/SSHDZxodpKLV+UMHoM7qqIqtNvw+hQFLLJmBum63UQEAqKmD2yyFITOZPChKEDG5sHH6MjgOCUMexhTO9yTCJRb58edllv5lR1RKGuOM6SL9H775t+VMbSg59cOUffrv1IKzatr121zlXzUPZNP+GS294fGso2Dvn4jNvfOD1pq4ef9HHc88766/v7rNk74X/+f2l6/PLPln7m1PnrNvvE5syL7z2lvzajpa8XWd9/f97+q0dje6shb/9yVemTfvgaM32Fx/70Xd/tWpnXmdn2y1XnT/tv+ZWdVtt5Ttnn3vO2i8KRTGUue2lM8+56JALLOh0TRdFEHOs+QsqKbjUlVzFbDcTL9HhmSb3hTESIarPZ4RC2EGjWGZCQdvupre1qX4/ijyHUntykU7t1pJaNsEAtvlA7eoSjuZwzXxKqI58CVZVTVP8Po36JRESZbg6kU2AGbGI1rbk6tmnz7iuOwSb96qiEpN8vOqRG+95LOODt6665KxtVDZt+euisy+fG5Atpdd/0/WXXPf45mAwOP+SU398yqnnX3r5r0741ukXXVneLlg9xRf9x/eWbix07Vp9xilXr9nvNdX6i8455Q93b+xoa/zrTX846ccnnnfBRZddfvG3vv3NNXtdPW3V1//ht9/+/kmXXH31r773nW+dMi+3RbX6W9bfPeenp8+46uorvvt//+vaO15SdTYghxnWYvQDTirUGCe7a6SK8gFPoslf1jE5BMqhoSiK32tKEprDHHpFDEXSrlDv64P4YiZzlh2aLf17bBRIdtnEjgUQovcHwYXaPmA5Sq4aG7FggFH3dD0Ukmuq9VCIpQyr1olsgjwWsfRQfl7Wl5/sVfogFIlhGsQinS0Nea7qhjpvwdGs5k5Ib/a7juQXi7plqEJx4dFib0t3W9NDS5bu+PLg5k0b1m94P7ukxrAsU+rN2/tlZXNfX0t91uH8+k7BsrTinH27D1Wpptnd7N+5dfOWXfur/fVHsg5Qpyez0VOy7YON6zd9cGjfwf2ZJZ2CpjfUdxVk7dq+ee269Zs//Ly2qQ/nCIrUMFSjJbCtOmor1Fpa5Jpq09aAHdjSo9U4hjQ89YZ6k9bbp/i9RNP4ZuIoKuZbfoYoyn4vRkZP602joGT8Iskum5CHQASoqlLr15mqMvmTL5AR1XlYebW2SmWl7MLFwZ5NSG4nsslWJWiJjnZYIeLod4ZcX3vj048+GYDNffZAafud/x1IGnjjHwGjgR/4putwhQTdduCfQLCwH/Zf/i3qCzqD011WU1HwCilmPeQ1RS04EYlIVtpNiter0LuX2YXjowOG8gHUahqK14tHjqJQciJw+VuqM9llE9ebiGVBpFd6Yx3wwbP78u4AACAASURBVOi4amxdi2fW4BhNrV8sL0PhEhUSHA4j2ptQ2IFlvadHo5HRoQnbyxwrQaa335l8hBgGQvDokcwemd1djoVAfg4uzt2y7Rpi/jXh5lJiCEL4SKYuCAw2WhuQjZVzSkHMjrYYpa7WCAZZBdFEudNKR5UPCYKEA8N8XR1A4tAfIlaLtn8ps6xT8sTKm04fHQWSXjbRXkf/Ea27Cw7921wfVSiMjgpOSmGzqMHJ7hoIC8eThpXnX+Lv07Ehb1l6KKTU+lmYKlp4WJUDCYOlFYOCJw7kswcMB4YLGFB+7FZ4eVz1wEmx4gJDhhuV0ZjNMkfW6/gdMVIbG3V6PyXu3zkuPT4ZmRXcsgxBEEqKIKYFxW0stbMlISFqc1Pk8ZdJ5smxoJD8ZVNANvEdFjA90qNn1Io8BYoTDmM9FIIzNO1tcRYpmDO+3mTLB+BzU5Yldw2cjLcFymSyDq7TcN0mV1fCEswOMTz6wcZkHmwUaE1Nakc7oMa1sElED4UsXJHS1Sm5SriVEKX5KAGh2AFqXZ1yVSXToEdZV7pYdAqkgGziDG0IYdXr4WuW0Q+b6KQYIZWxuGUpra1CcYFJNYtY/O1QNtniCQatXFWudWK4FZDGcaDhKhJvxR4pcQrF/YQVUcEhZGdqXZ3jJUcQVK29HS5EoNH44qMWF8pRfkTkYBXs90kVLvZzzEtLqMeyjHBYyD3CeXLysRslUVKhWArIJtvSQUxFgcAdYfADAs4YM3sl1EHM2GSaSq1fqq7C1mPxIg6AEfUmhghEH7EUj5tdxgcWpyh+CQlBm1BmdNSAEObhsJBzxAiD+8+A+TuhugZnxkGr9/XS+3IGXUUzOOME/sI+MjVNqqqEawTpCc2xT2xQLSGmIov5R1lcVnpmcAIx+RurOgVkE9+qI4ah+LxqOwtXhtv5k9NfXNbArlN1FWoBPHE4DPzTiPYmumKFf9TGBryUEe/gHF7nRKVwB1eMdekqNhSF21PG2CiTC6IgV1VinElOmTHW7LQ4tkeIEQpJFeVaawskOHXTitcI1GNZxNDF8jKlgV6ThSvWuDpvvBrT3wZTIAVkE8xOlMNAufDBHjDO6sgcg9GZwF8UBGKIglhShKse6hYaXcHBzI70JnTBtCyts1MsLjDB9WZSMUMxhIJeKi+DcI7jt/hCZdPUdclVora3Y+TSCeykYVVzIQvkdZWwWyfGY5+Xq5ay1y2WFqE6NsJqfBh46YQ4FEgF2WR7h4NyUVeL59pxsTB2zTwOaSI/0bkWGE/v7YHT56KE0gf1gsic+O5cNvH9MiMUEnKzDUmcfL0JoKWqRDj7sBZohPE8TkZrRjfLkkpLqXLBFujDKTZRKXS3EeLqNTaIpcW4bzgu1gBGNHoLeTiHmpzSetO49mJqyCbgaNrxEAa3qNCwzxyMC5M5oSfO/8Diba1SVeWI14c4l004saPlQnKVaM1wci2WyHMCaqJ5uJTXw+FwXrbeB2HtuKKaaG3D8wMu9A5UuabKVNi9SZM3qVC2AZc0n0f2QOwq1AqHw5loCieRHgwKBXl6Xy+Tu1TrTLS2dP7hFEgN2cQGsGXp4bBYUqh2duDgHxd77XCiDE/B5kBxa2pS6+twPHPujJXfyZqOKxKmrit+v0yvD2CibVIsF4gFoc7uYmkR93IeF9oyusGKtQMCbIf6ecpwok1ECsXOIpomu6u1FmpsGifBjzwAk6amwYq1nnneQYsTgcnfXp2pIZvQToELBLG0SG2AQB9cl5mEXkN+M2GTrhbsJth67N00Jlwsa0RbOJ/JofLWFqHgKEuhdwdMDmoIrer3ShXl+A4DLDZ2CUGFepMhiEJhPrfTTZ7eRA3WpiRJlRXs8vTxMDYBBSilcEdVrqyQyiBcBOPJtHRKiEViZE4R2UQ5gfFBTY1cXcUMB5PFBDhiiWGofh+f/OMMMMzvSG+y/SEIxKvrE3KP8HCxceqP0ZujSUaJb1mWXFmhwlkzYpoGCKZxoi2Qgm7bg3LR1MgoOU6Cb0SEqXYDkcthJa5pvF9GLDhiBjzxi0EI1Po6qbiQna8cP7E+IgzHdoaUkU0wUaHJqa0V4jSHIQYAzsmT0EOoNxFdV3xeg14nh0MuVtN8DDjRm2C+pYLAlGWR3jfLZuBJGMBMVMD5MsVdo/X2QALu08XCLcF07CNimkpdreyuMew73cZL9sUBh/eC3t2t1NErDpFn4pRx/okSCiPk6MEg7N729CBPjstyeARAcOZAHZC/j1AmxT6njGwa4LNQSCotUumNlZA4CQSnbYO8UFXZwxzT45tUObROZBPLDMfaTdnnlcpKIAUjsU0wftyQZ8oyHFVR4RZPaJ3+GRfS4vIQTHUdHWJpsSHQO90mp+Mi5jN+6m08BYe9aWDqOphBm5uwKycBOei4iP+gu8alt5KpkpSRTXwxD3e6FeWrTRALNb6AGC864wCGAwqiqHg9HJKo9XPuRNPD/v37Dx8+jMwax0AGpeguvhpoFHKyuN404Qxng2uEw0ptLbpWjS9V6YlhaAaOd+Tn6kEI7zuOa8aovYCJyCF0ByPArl8e17jAwBjUyQ3uvCstYtFX0JMgDljj8onrStx8NsHT2LhAnVAlqSSbmDCyLLG8FA/9Mi5PCONRZKYDmB4W7QKPcPwZtx7ulnnw4MEjR44wZYSpI1EEDqBGmUzraBdyjhDdDqU4wQzHh5be26vW11v0Dt5xnvZtcpmqIpYWaZ0dIHlRPMWl4dg/8slAra/X7SAt47mWpF2Gpk+5phrMoLbLwtiBj18DzmTwr67jrgX+G79Uan1NJdnER7jaWA9XjOk0dNEEj15Y4dgMJ7trRrzKFSUXDm9d17/44osDBw6gFZ8PleEsAmMVECGmKIrFhayVcZ3khzfKZARtWmtv03BJMt5GLqZ10lWq4vepTWzhM55rq2i48Y4wZFn2uE0J7lKHJ1rmUaeh6gQBCcDvnMVlHe9GhkLHESGmAbHPdbjPYqLpORSIif+dSrKJs5YeDErlZRif1yEfYDbWqTZ/OimL2zEgViwrfOSwQePwxinINaasrKyHH374cvqsXbtWURT8FLUsF3+EWFJFueKuAVCdBf/nZInELmorw9mJZ1MbG3jUF544PD+mYIbIdmPlhHS69EbprLa1KnW1+D5iK8Pb4u3Gay7iG+bXenqlShfcJOhg84Q3kRB2MH8ZhliYx0PoRUAR85VTgHccbzRmGfsDSiJiGFpHm0m3F3htdpYof3n9Q1rkWEcpEyeJ1sI1BviFxkp7fMUp6uRTKskmTgVTUcUyl0FjM064Kmt3o6kq4cyDhgI3DsThA1SOCCEffPDBj370o2n0ue6667hswpE5tG/omg4+EaJ4aqTyCGeZoVnH8zdDzjBkv4+HRhnPBmhdrBVC9L4+2eeZHP8Pqu+alkW09japrIzDMBHY4dQllhZrPfYVio7HZxxeigUqw8WyDFVVAwFThUCA/LHlAyTwITO4lSjAYW5eCUoZ9OGKrGQgA38bgBLrgN9RGhjI5vQtKWTT8ccfX1xcTBUFuNeaYz38Bb+ahiFVV+p9fch/w7MNT8GCuq53dnaG6V2sDstyZUft7haO5qCPTBwgef6Ghobzzz9/2rRpxx9//KpVq+C2a113UlANNKIPJK9qODqRKTxbKBTq7OzE23fjNDSkLBwSFEXZXaMHndITK+/v7w/Ry5SctIV5dEGQvd4RaTgcQlmWu7q6RBHWZU6aY9koLyn1dXgJFSdUZP1D3rFyWZZ7eno06g/lpDlWyu3GoJpOikQi0tPT09vbi6WclOWIaMGg0thAdA3FBx/0HKlocgrGl2XIXlfR4QK/LHX7PDWCwiI784JMrtk1RqYPvFM4CCH1VQUFReVhlULBPOPGYek8BbIJ0cY+EARhyZIlicom2HlpbMRgKVBPZA8MUG7QGzYXDoe3bt2KcjCSOQZlHfyD84FcUwMsTtk9PgPhV13XN2zY8I1vfOOXv/xlJwaNo2VjzkK0GFy1EuoH+widDOM3hJCaponyqKioaMuWLc5HFCxXKUgYvBFPqzhpEZvLycnJz893TkaAVtPQQcxhKZ4tEAh8+OGHbrcbJ7DBXRT9FyqhsLvvcqltcE8EoEbxjV6ApiL6zc3Nu3fv7u0duDE0ThEOpNbZgVslTmjISxFC9uzZ8/nnn2OKk7IUEYBIbWjgmzODIKQjArUelk59DIB6dLxUH8m4fe68TUcCSmvuu++81dwr45bjkKE0kt5kguupRVoqPnn4zkWvvX9Esu8Kg00CW66N+u9kyyauW2IfiKK4dOlSlE2oWRgGqE6xHrhem1ph1M5OubHetCxD1824RbAqHE7BYHDNmjXZ2dk8MVZDPJ23GMo6pDQ1mQSukBwRSJ2aJxsbG3/xi1/Mnz8fL56MXwoEjP3Ifq/W3w83CzhDDZs7cuTI6tWrVVVFacVRiPlCmzMJkevrhNISg8o4Jy1ic/v37z906BCiFrMJ+wNiZlqW7PPqouQUQtPEtvx+/7p168rL4Z47VD/timP+BUSoShg6kqmFQqzFkeiJfFJXV7dlyxacUZw0h0TTRUnyeFivjdQQp4BhGFu2bNm+fTumOKE/5KEXTwiuUrm+FmY7e8qkdigS7utqbWkRFZ2YRJGF9ta2niCNFwijziK68Myfb59z10qJWIbU19baJilKb093MCS2NzcUFBbXt/bCfWLsxDcIGU2RgqGQEOp1V5SWVXp7w2JXS2NRXn65u14BO56+Z9W9l13yp/0VEDGVjsdxWNVNtmziyicKqXA4vGTJkuOOO+7555/fsWPHli1btm7dui3uAxm2b9+yceP7r7227cMPt9Inbgn4uHXr1oyMjI0bNy5YsODpp5/G/I7awga2bHn38Uc3r127LSPDSYvY3Lp1604++eQbbrjho48+clIK4dyWkfHB669vXr9+2/btTkphnoyMjCeffPL222/fvHnzh5QsTmgCLW7b9t4rf33v5ZewuRFLIZA7dux49NFHn3jiiQxKEIelKGqvbX5nPXacw1IZGRmvvfbawoULX3rpJaSkw4Lbtm/f/M47m558bMv7HzhscevWrdu3b3/jjTcWL168bt267bQLRmwOGOnDD7du3vzeK68gU43IWqyvadWLFy9esmQJ9tqIBTlLbN269d1nn9n81lutHR38wCk9Q2M15Ky8YsZP13zisiz9i/eePeNXV771PpzT1DXNskh/a9X8ebes/qLaIiTo/vyl5x+s8Vc+f9ed55585cW/nXXyCf994rk37HS1Eua8BRHKugJV11129i9PPvWsX5924kmnXjlvwaWXXnj6ySf98Ee/eWl9PiFWZ83n8675w4NvfU6dXwxwlx+z4jTZsgkVV5DE9Glubr7pppvQYJz+N02BNAVGQYGHH35YtG/BQDVSl9uevfjUP1x5W/YXW8//7tfOvuy2qnbYw9F1jRCrofyLhQsWFwZEQqy+sh2LFswpqSx89PxffWXav9330qYv1j777WnT5jz0ctCwQG+n+5udDeU//c4/n/GHm/ZmHXnhzou+9bV/XPDoK4U5e686/d/PveZuWMkJDU/dcOP5c1d2UqsTtWmNejHHCk6ZbFLp097evmDBguOOO+7MM8+84IILZjl/Zs4878wzZ55zzqzzz3dYaPbs2eecc84JJ5xw+umnOyzCss2efe6vf33umWfOmj3beUFs7qSTTjrzzDNnJ1Jw1uzZM88++7zfznDe1syZM88///zTTjvthBNOmDlzZgLNzZ4983dnn/urM2aee65z7GbOnHnBBReceuqpp512WgJtzZoFqJ1zzrlnnO68LVpo9llnnXXiiSeeeeaZ559//syZM51T5twzTp959m+d58fmZsyY8bOf/ex3v/tdYtjNmnXeb86aefbZCWE3a9asn/3sZz//+c8TAnLW7NnnzZhx3pm/njVz1kcffaRHmO1xIzjcUXn2qT/5j6/8w4wr7txfDXcCwZpRhwVY9eFdt859qLJdJZYVrPx06eJbKmoKH73s8gsvfbIZrmINLbv2tEsXrgiBJy7s3liW1ViZfeP8+TmNYHRvLNg679bbSv19lmVtfP72mVfdCsqY0vL2wuvPm7W0vs8AUzssCFNNNg1Z00mStGzZsuOPP76sDK6iTOjR3TVk8PWzIxYXRXHDhg35+fkj5hySQS13GY31QxJH/CkIwubNmz0eOOaS0EN6e42mQEJFLMvKy8t75513Ei1ltber5aWWCVyb0HP48OGcnJyEikBmVZXzEy7V2Nj47rvv1tTUJNqcnHOY9MOl7Qk9zc3NGRkZfX0w/BJ6jECD2daaUBHLsjIyMnbt2pVoKb3Wp7mrsBQ3hPNtIcsy77ryd9OmTb935ZYwLLRAo0LZVLp3+603P10bBI/NvordS++ZX16Z9/Cca6+8d32HZJhEeWTRJZctfDgMizow/lqWVevKWvTn26sh7CCpLd75wIoHfK39hJir/nLzzKtv08HgJXz84k2zz5pT1UTN6nRVlyhGQ/JPgd6EEKAtHPfppk+fXlRUZBiGrusj2gKZVdU0pZpqub7OoQURqw0Gg2vXrnVoC+cNaYIgFOYrra20d2EmGfHB5np7e999993KykqHQGI20zS13l7J7dZFkafEaZHT7ciRI2vWrHFoC0cIDcOQfF6xsoL/jNMQ/4TdtH///szMTCcQYkHWhKqG83OVri6HNEFTtN/vX79+fXl5OSLLIYn6Ag3RxrRQqP/wQS0cThTI+vr6rVu3dnZ2mtQYH7WVyETOKkpTQPS4YX+GbixE5hn+zmmO1kmHBMFSuqoKZS44ng0SBzwAbCEF7ViW1ezadek5Z18w6/RfnHHhhk9AptMtTpBHntxPbr1peXkbxCANVu5Zeu/8iqr8FXPmXHnPmnbRsIj88MKLL1/4CFxnZMumurIjC++8vQLiLFj+oo+Wr7jf3wYSf/Uz82ddczvIJq1jzZLrzz1nob9Ls44NvSlRH4LIfValoUFyV5v08miUdHz2GP6CGUKh0LZt2xz6ECAzwU5tT7dQUojXhIzYEDaN2YLB4M6dO71euAGY1zYctsgULGgIglRdpTnbw0aeJoQUFhZu3brVoQ8Ba0iR4Wak+jp0KnOI3Sh8CJAC8K8OF5PINEqkE5pgW42NjRkZGQ59CHi1SiAglBTAtTEJeUUR0tTUtHv37p4eiBjjhCa8Ra2zQyov0yUIJz9iQcxgmmZCPgRYSguF4X6XlmZsCEUPMBJs2FlGqOHe62fcvOT58uLdl5z8/2b84X5XcwgOhIK9iTRWZC647c4cfzchpK9i9713zyuvzLv/qqsvWbimXTQtS3no9gv+sOAhkE0G6AqoNy1YeCuXTfc9tMzX2m9Z1ttPzzvnivmgJAn+J+ddN/uml9tViHdPtw2HqEEJ/5xsvYkDiJIefQimT59eUlKCS2I+A/CcQ15wFMHioLMDYsg6c9jHanVdb21tDQaZkh+/Lbun4V5p0VVkqrDYhp6356ghgEX+5M21t7cLAiziUQBF5on6jmcRIMxrZZnawW67ir9y5zUHg8HWVnDk4QvnqE3AVxseIyyIrmK4dJfWgq3HKsXTsYne3l5c9cQn40Ap5lsEl+VIZSW0RdqZPEe0F6xcFMW2tjZOyWgZWRpSA5lErqpk18ZQfJ13nCzLHR0dqjPWAnraY9EI9QvFBYYdejgOnLyPCCEdHR2dnfS+Ugp9nFK847Quem1MEFadNgNQCQmihBSufeZ//u+/bzlQZRH589UP/vrEnz23NgOCF2pgqQ61u+ffevOmL6tBb3J//ujDd1fXlDxx8y1zH3y/E64QlP+y7Joblj0DAdJsvamhMvf+B5a46Rq3rnT3Y089Wtfeb1nk3b8uvnz+vaZl9fsP3nrVxfe8uhuMWOB8ALrbGJ/Uk02cDyD2/tFsE0+uOJAXiVIKJiFareLxyJUVlObgvJdoPQnlR+wIIWKZS61noYedDKqEWkF2tgjRe7qFwjyD+1tPKHZUlQD1v7VZyMokPObBePcdVyWEnCPsAPNIYz4x6g3PjeIBrtJUhMI8HnrYodQeXl/MFEZDS62vE10lePoHF3FMRlGp3O5xVxQVixqYpRUhVFNSVFffQP0MqFuULr/11PI5tzwdCBq63NfU1ChJYktdXV1LtwbcbbQ2+esCraAv2XRTpHBTU0CGFaElC31NzU2KBt+72wO++oCpdG3838VXX7v0qAdWfVSgjQPqqSeb2DRBCMTcKC7QWlv4FBSzR3HapP+iSow549MP+oVejihXlqmN9dC1huFQTGDNOEj4e/zmGPA28ym1frm6ih2ViisycFwgETh28dvCFSbBa2PKyyDOBnKhMzExBKP4bfFO4XO+3h8Ujubo/fa9BiNhlxhqiAkhhiiGsw8bQbj+hJOFAxPrhaPGizjBDlGDYalrUk0VXKFINSlbakRvLbItzMm7MnoBW0EDGeipkfGOYltli1pkCPBo3QZ1KVD05C2XLH9237BS8XX0IdlZ5qKNb147a+GOHNgsAsEEaAzJOZqfUyybBEHgfuGDjyPERGaADwxd9nrgLtyIJ1YxzgcReUdY+0ARyuJSWanWA4tzeGI1EJHOcmKgNntgYFn+KSL7oFc+gNW2NqmiXA/Bqh5XKIPyRfzAOtkcR6UOS2GNRWS1X1mFhGhNTYrfPzAw7Azx/9ot8mmCCnGaGq+gnQFCD5cWq4EAlh8RO3v+Rok6kD1qb3CZAteFlRTyYBWOlqs2xfAvVgXvNqIxsWMFobPVQEAqKzPByxGKxSxif+Vt4ZjGIrTRKEXZkl/X5JpqNDZFNMGAgIrtY0wUBtwYoPo+M0iBb3h3c121uxFckyJc2Cm8Np1tuuNfSg0AKWLGpf5PptnRWOv1NUk6dA1ko7miQJ9g0tTLpiVLlkyfPr2iHHwIcA+CohC7U/loN021KSAWF8LojTv3RgYsjejLEUiF/KH390NcHhojHFqJy22DaxzCYJEl42GHEOr9IXqBcBf29+Cao/2KrJ5ykJ0pSltsAJimWlerURMVa2VIJXYV4/UX5QohRKqukiorsOOc94gTMDgiit/HL9SCATMCh0DdNqWGQmSnx2sfzeHgVNzVJeTnDlxIEa9Qwt9Q/BiyJFVV6r29KCmGghu7VsjJ/qc9TUvSOmOXifsFm+b/InhUksct5uzjVMsmUVy6bNk//uM/bN6yux98Kzj3xgOf8x9cTJJ92NRUJArSKGpJTj6QgHJfZ0dLiK6eRyyid3VJFa4R649sNDJzONhVUlJU7a1VIVwH7TX4HJl96DsWN3UDYm4EGkfkP7s5S1fCVRWluUeLahs6oQX2YWj9/AvciOeDa2MSlRFYMSiVutLQWN/VL3B1L0pjEUlczmoN9WJRATeuxaYINAXg6UpLoLakuLioqLC2IQCHwugTUTd7xXSw6FaUc4MdVBKf6FiaFQZs+jpa83OO1rV06tBxvNbhDQ5ulxBDEMSCo1xwxCxAa4VzJIrocrlKiouLi8u8/vqgoLD2opVEG7PR3y9XVY3u2hhkPZt+nBH5S7RWY6axUkPIM7q6hjcy1bIp1Lt08cLj/v7vLztv9vKHN3hbwo6sA0gMywLTY3GB0gLebqiBD8eQpkABajtSg12t29988M4HV+TWwkaEYcSwbdMmYBpsblIbWLBaR/xNOQuNAN0B12OPLLv1zj/fcN2Vr2/Zq8Nq3A62GwNQFBzwrwX7WYqnhkcUiVUCD9dblvH+6ueuumnBg8sW/3nhw/5W2DPGDfjhBdmAV1XZ5zNVurXicPQifFRJIIS4D39yycxzPziMGwXMT294cwMpdiQAvadHLCrQg0E27GMrNYQ6hYotJY8+tOiCq+cvuv22197ZDPIihrLMxglG0enuhJ+Or42heYFR2qvzX1y8ZNHtN9w4/6YvS2tBW45r1kEEsWlT0+TqaowdHl8mUmWfhLrq7r7zzttuv33RHXeeP2fBh0frwQnAiE4R9LbWuruUWj92Iv47QOER33gxBJfNVCMWi54hamXRsyaeOlWyCQhjWVZPW+2tV/3m37757b0Zzyy85oZ39xTBFijejxYbGTZLo6Ha7YY4zfSJveaCwWRZltLf8cmap/7w21MvuO6+/DrqwGFEl/JcEVDq67QuWFjBExukyC/gcASt6Xkfv33FtQ/WtHTtXHnvpRfOrVNAAeDKf2SRyHfWFCFaSwvcdjWCCwIYDABauWnen5Zv+sxnWZ3vvPzQniwvVTeiyQsbFUNR0HkvphISCRa8s5KwRUyJ8fr9N3//37+dkVsDKXDsH56hhSJ+8wymooglhSPefUKFBXj2NRdte2nlE5+VNoX7urr6gly7HtJYZP2y12PYp8wgW1zAEEZmUjFCu95+5fb5zyuW8O4rT32cWaJQbkAWisBm0CuASpswDUNpqJfKSxGYIRBGlqEZLEOV25pbWts6m9zZSx56oaQlTE3eUY580PyAut7WpjU1OtHmIptLufepkk1AWMuy2uvLrpv1X//6b/9RUXro7ftvf/md3SHqAD+C5ZKanGAyIxZcTJILlwWg3hSDFaBbLYvoUrje7frkrScevP+hbD+uZWKWQF5UfV5TknBcOuFvhITGlNKbPK7cPAhhseXVFef84baA6kg2ofACFuzvFwrzMYRenDGPcJpqqMLV1NMn1VYfev7JZYfK4Wx6VL0JCEEHtynLis9Lf1LZ7WD0An+jJmJZYmfVI/ctXXj1NbsOV8C6xwSVcMQBgKYfMDmVlcB+lt1xMQqahkFdmfevveWC/zlr1qVzrrs3qwhIGktNRolgCGHQLKiyA/RxABjFDGZGNVj31pPLZ120eNEjj63eU9AXVmkFQLIYQLJkvkTFCykQyJGaRs6Exve9+8L6d3dTMGK2Bdeawg5GQOvsoP3AJt34gKXo16mSTaxLmtxHLj39X77+jf/rcuXvjPeIQAAAIABJREFUe3XJo69vbqW2ixFkE87glPO0jvZw5n6oDu2d8RiIdWQg+92nHl+R5QMPTLarMKz3GJ8ZhuL1EAd7LpEV4PBA9ZvoStZnH3zrx+eseCePWASPF8TnclacEENVxaICraMj7gCObM3qqj3w85/86Oe//X1RA9UKo65EQKZTva6vDywydMKPD5KNHW0LDkmYutzx0rzL1q/74Pl7Fm7afVTWDCAlfezM0f5iBdQVQ66ukisr4k/+dOsW5N7Rj9ZfeMGVy1euW/Xi4/Pufaw3bEehHdwIDldQWfv62MX0dBE9OFfMX4QYFrHUvobXHpzz4zOvfumvf7noNz9Zu+uwQhXFEXkSzRHQerBPyMsheI1w9MUZwECX0SB8DWJ1u/csmHfFvhK49xh5crggBOLR2tSGep2e9RuZ4DFxTYEPUyybugIVN1z0029889tl+Rkv3jF/9bZM6u3v6KQgU6FFQSzK1+ihX955wwgPX+gSUDdNo2bfmicefeQI6k3R1nTAA1TG6cGg4vc5MRJFtojsRSzSUVv45mMPvrJyVW0b2LaYLwBlqMj8w99RUsBduz6v1tSEAzjGmgJ3oIgabMj49HAz6ILWjg/e2rB9H6XGUEoiidAUCpV3tANd4gn0SOhQpQOSNRdvvueW+Y89+fSvTv35vGV/Ka5lPhYxgIyshHpRW5ba0T7ihRQgRKnEqy4ryi/z0VqEp596qrGD+UNTu9NA5Ux3JkRrb2ULxtiiYaCY/UYVcaKH6l596O5bl31kWdaaGy9e+uT6DrqoQ4Fu543yFykJva8osseN5nAU2FFyQxLIGgPCFQqrnr//jsc2CDqX1UNFE2UqQBcq93kNeizGccfFaD+5k6dKNrHxEOptv/v2a796/L8tvuHMeTctz6mkl5fBEBjaN0PISAc4DjRTrqyAtQn2XjxehFORlmXVfPHWww/cn0n1phg2R3YKQWtplv0+HLnO+YCBT7S9a+85/Zc/efKlN9avfnPTzv1tYZOuRZj6NgQj/hPxgOaoyQkuy6ZIxQCAsbcptd572433PPH6J7u2Prr8zv0FcCIBXVd4zfjCZLphCLnZcIMQKqGOxBOjOgCmqqqmBjzF911zxeqMg2EV9KZY66xIAAA7VBg0TSwpGrg2LjKT/U6PCsKA/Cxj9XW3LHp144cb3nz2iefeCMkQlmM4l3ASKY0NWkc7Hf0As13fCH9B8wZyiPt3rp47f9GmTW9cf+Ul731ZwEISxWMtWjOIGio+TFNradaa4bBbnNapZALvasF38J7rL1mb3YLSKpZ8x9q0nm6pqpLY18Y4xW0E1JPx81TJJtZn4XD4vmX3TZs2be7cO/bneWWNrQucsBMo2lSGKV6PVE6P442gwINHmmVZrdXZu/d84u+Ec9hRJ0M+Ryn1tUpdrT14nbIBhYoQU6vO3fWXJx5+aMUjjzz0wEsbdzT2gxYTdyJlLAKIUdS03l7F58Wb+GJxOegWVJS7Dry3Yvk9S5fc+/qqdSFYh9BqhpASGRy86tXwgS/Bb8tWEp2zJyIBixep78DWzS5PM5CGwuykEigOZLCkkiKtuwslSNSCXEwHOxs3v/P6fffdf98DDx0qBLGLyA0pxZAzTQWujekCOTOiQImogjYH9FL6O/d8uP7OO+98J2Nvt6DBRErdWyLyRn9lAICXU6fWUI8/Y5mcKBmgm3rqXNtWr/d10psaKGLDa0dS4HQFV13YcjdW5cNrSLmUqZJNTG+COARLl371q1/NzSui7A2jlw7CkQUB73ituUlywTUtLCVmJ8B36FPMgO9Dhq7N9cjWcFkmHPWOaXmN2hQFA0aP3Q4DjAkX9jlqUTsRS+At5z5v3PPMgyqXRSEcDmt0oco+2FXCXzb44IvW1ytkZ8GBLJocmSv2u12l3SaVMFArI6z9ErsG+sVWnWR3jdoGYc+guE2uIWXpF0pJYsiSGBZlTMFGGYntMgiGIYmy2633MwcF+6Ojv1gtVTl1UVbQwyRqW7GqA62HELgnuZba7CnNo2LHseaMgqRALIbUD/MP/aDU1ioeN+/KIdmOpZ9TLJtEes/K9OnTS0tL8MwKqgAxGHUw5WlvgY9SfwiOm6tKnK4dXDLeLz5WjXBYLC0GHxwc1I5gilez8294YSfwH5icfPzgRbwakHPtHAP8HQE2VotLKrgj213DlKZElAu7hdH/RQqDfOzoVG3lYoiUwdo5FvyFpg/+ZQPCJAghalurVFUJfmEYN8LOMOJfu95IUka8R1AyVlUMBsvSw2HYhURtx643VilMj5eL1gsSU9NEV4na1gYVo4iPX2kqf51i2TTsPB2dHBwwAZMXOJmYplLrdxCYgvEZYyDaShSGQKWaEK2rEw8fMJHneAAPbYa3By2yHyPwDCo4VE7LPh/304laCmvkcjmiNfoaWYYm4AwsZB2CGCx01ROFCJGlhr/bFQ+0ZTc/PG+UFLs43AZuH1iNqlnYtQ60g288fUjlaKlR/D6pwgUjGXWWIZni/hzaUuTvuAX5RySmIUmy1w1WIVpDVOyG4IIFeSKvEF8w3RAEOMDM/bYc8+SQ2lLi5xTLplHEb4okK05LEMupoUHv7sZ5MuGRFlmjPVbhjH5jg1hSkugZ/cGVjeEXzIqwOlDr67VeFuQsKos7b8M2dhFDkoTsw3p/MNZIcF7n6HJiH4GbotdDDBoFwbEXUqwWERdimuCdUEPdccdcZ6y24qQjGKaqyl6PHupn09HYIIE66TSs93SHs7MGTqs4m8XjQJvMn1JZNqHhgfaZ1twMlguUVWObTJjmZppwWaYXYp6yWXpyu5HyNJi4tdYWtYkd2YeFz2jZEWhD/4NInl1dYlGBkaBP6TgSgA1g05R9Pl2g0V/HNqXwWcoQRamyQg3YbtPjCLSzqpj6Q+3xCj9HPRbsKJ/jSpwGOSjBLR2goTOQUjRXKssmatXGDtLa29WmJhy6Y+wyLA7BoYry0PuW8f0kcwIdvujIJ7pcjAvHhhtOv3B2hwaHGhyZbFIZGPEghCi1fo1eegwpY6Mwyju1u0ssc2l97Iz+GOscBVFwyQy6fF2t4oZA3SxltNixdTc1B0iuYqWhnm4XwT+Tj90oCDLqIqktm1BRggHc26PU+mGvnXbhqMnBDRlaby+4/yjUz8A2uo+l2lGUZVqOqglHDjNfuzEsDXDogvFb18HdvKlpYNiMArixFWHA0IUz9dKgA3gMCi/Xm9T6eqmsdGAlPjY4R1EaIQFLf3OTWJhnaixuX0LeDIPapXwAHadp4UP7jRC9nAlPQQzKd6z9SHHZZNuWYVvE4zbCcPh+TDOwXVxpqBfLy00NfDXHpqyMnmNgYoRZ1xCLC1R6sxAz7o5qBuaekXooBLKpm3pyj0EcjB4xSlLUJrT2NqmahfvA1fRoqqXbF9B1ui67axQfepBPWcehbUjr7RGKC/R+cNUHgTWqXoOyuOFjWVp3t5BzhMaNGBuTj4bEU1Am5WUTG8CqKtdU8yXYqNfhXH+WykqV+jq26kGBNem9w03XsrtGdldTKKg6PypIoDjlcrWtVSwtHtjrGe2YGRUUrBBf+Oh9faKrxAiDyWnUcwBXltHYxB2yR13hWFDjYsiQZdFVrNCY0RzfRGvG2lBqK36/VFFu0rMNkJJoXamWP+VlEx/AYAFtoBGLx7DwYf4+hAjZh+GMHk7IU6RcYOsQQ6qlJXzk0MASbFRsCcxMC8oet1xVjqIq1vGIiWZjlLMw8GRZKMzTu+CWkVEPYJBq9NF7uiEsFKx60LUe9jEm/wGepNOAXFkRGTN6dJDQOQV2RcT8XLUJDgPDMxYmHx0ck14q5WUTH8CyzwvB/0c6/B2PwrTLCXhjw/lhQ4YLcfiQjldwYr5h6+CA2d8fzjpkhIUBvky8RSgLYWJ0qbxMbWgAWTDCEZ/E20ikBE78xNClyjKMlIaDcBT2XZRDeJ6D3z6CtEoEovHLi9deWERrbnYQgSteu6zHCbh9hLMycYWIrufxih0T31JeNvEBrLW2SpUVMGfaB/4T7SDuja11dckeN4SjR3N0ohWNV37KmICOqoqlRbAvblsucGAn1A4KWUMUpLJSnd4KOYpKEmoxTmY+5Gjw/0axopwH/x/FUgWXPOBvEWiAuBH0dOFUYmevT/VgUHSVwJnB0dqbUP+CXb/2NrG4EOPWA/XiEPdY+ZTysmlAnw/1C6UlajveNzkqZd4eMVogAMfoKI9PrfLMRh0hstct0eseEMZRsB/yM9h3ykoMer4HKx9FVeNSBI9qg7LT0y0U5Jk86Efi4w5RMw1DrfMDA4xBgo8LaqjLQ0/pulhSpAYCANKodns5Ayhej+xx2xx6jHsPYC+kvmyy5yhiGHDUqIHdNwn8mhCX44qCmpZUv48H30mskvFh7YFaBlYrgUYxPxdhHI14omXAdNXZCafY8ZkqOxrFD8cqrqDDeTk6v2A9cagYOpoGgY1gr3asHgkDHTDaN7Y+tSwawMeDM1zCazGKGNoEpbJSuCSRhXsY1dQ7WlymqtwxIptw5lTq6+SaarxvEgyriRCVn3chJlF9Xj0cBsZIsJJEGnSWl3InPc/cLxbnswFMDb3OyrNcfOWrNgXQZzrhcZJQe04y26jBBev0vklUgRPea+f1yArEk9FUrGdqJxVcfaOXk1RZYYTDrAucUMbOw3sNrIRVFXpvD18l2FmO5b/HgmyigYNA+dX7gkJxodYLFx+PRm+ieha9GckzEFcwIeVrvFkFJCa6txAiVbgUj2eUqwNbnMl+P4wTfMYb2oTq46iZxAS3BqoVjsKTgA9gUxQVnw+0ZcoQCc1MCUHuJDOjMCGGLAtFBWp7KyN5QuxEy8DMRKMaYBgvVKOcwJDqeY4F2cT4wIJ4acAH9GAdDGnHqwOoAUOjEUL5wMtNs1PcwRQ3vOtc8XngeD1dq6Ke6BA2xA7/VbyegUh1CY0Th405z4aoUc1U7+8PH8kczRFWSg0crkawT62rhQUdrTkZ9CYUtWBqCDQyWeyYJ6EsClmIBtXDF3QUuakVvM77eEw5jwXZZGtJcNWHVF2lNlHTY4I7I8zoaFlKS7NaV4fWkITXF2Pqi5iFUchqLS1iRenAdXIxs0f5gOE9jXBY9nl4ONco+SY9CSkMboplLogGRxVe5yOPa5FwgLm5SWttAb1pamWuTUMuImWvR6n143IsIY5iNcAmXTsLf04Dt9otHON/jwXZFGkhVttaIcC2gysqIzuWzUX0j1RRPnCbbiKzXGSF4/jOsYM73VwlcMEGhdN5E1gD3G7U3ATEsR/nNUxQTgAEV6ymqTU3a81wxC+xxbg9A5m6JuTnDCxXk0A8MdSo1kPNoPYdpY6piR1lEqI01Gmd4J6KdTquILUzHguyCRmaKvZEFwTZMxDE1uEUymw6NAauUMjCD0y9tdhmLVu4WOD73tbKLSz293h/uWgjhEAM3Ck94hsFUNsQBrc2+eGuWngcOj1z0WZZeqg/fHAfKpgJ6SZRQBqvJIoawKgqsqfGEODOanwctUCzgrFJUSR3jR7sT6CsowaSPdMxIpvYfEvdFBWfz5DlhDqSD2Cts0MsKYF96AQXFxPdz4iOGmhgu2yJ6AUooA1ZBpWwm91RnCQDmMtZIxSS/T5myHY2peDWKm4WqE0BsbgQqeTczjihvcbAA2VHV/x+PdiXGE8iBxKi9fbINdUDwbYmFOhkqvwYkU1cuBCTwD3aIr2ywrG3G+Npy5L9PqmybCCwUSIiYOK6lfO0FgwqtbXcyOKkRaQMuDj29orFhYZgb9IlwXIV4GekJ6YkKl43Xwc5smTbZQkhYkmhMvbTlE4I6jwPJT3CqAYadXqjDGrojuqwNUol0AihGqiZ4m9nk86yrGNENkUs6yy1oQ48QSjbO2EFPvJNQ5fKSxW/H2a8KT1rNpx3EUhT0yCILV3yOESNL1fVZqpZ0FPsidl0hkMzrimoJJmqqng9A9ERRppXgCC4tWrBXZVCViZXTJyb0scVj2iVoXwhltbRrrU0sU4cCTUmsW1LnOyulj1u9Lp0plBGgyQF044d2QQ9Sjc29J5uuaaamR6caQc4gNXOTslVogfhzthkm6CQKWE3qtYP6zLHECIicD9HWYnaFMCtn6TCjklPiIxeB/tZjl2f7YKWGmgUXSU8eEhSDUMmeUVRqqrEUIUO5QsuuvVgn1ThglsnbDUqqbCbUGCOHdk0oP6oajjrEOy102dE8vFel70esbyMTW7Oyo5Y+XhlYLgQotTXK3VsAI+88MFiNJKBkJNlSCJhTjMgo8YLtjHWY6s/ltbcJBQeBZBRsxgJQjbsLQKx9xob0HQFYnekgmME2Hlxm/ywmwiXGPeDPdshhDh/qI1U7Kpsjy95es05EUad89iRTTDfUl4wTRLOPaL10LiONCUOsyKvwL+yLFdVDsSHTRr+xq7lcGqtrXJNDbPLjLQ64M57anOTWJQPYTzR/yepsLNHsN7bIxTl8+hL8U3anCBwZ0zBUb2zk5+wHfVgmIiC9pFm2GPVAvadFHEFqE0P+Kt43LK7Gq57RU6eCBCTtc5jSjaxoWgRqaoSYnpxkxNdwcfqApiLCNF7eiRXidbFJFqszFOVjmKXnsvpkyBQZAgGJ4qY2IIGS1mWJZWXyrV+E66ptUtNFSbD2uX7WXB/hKtYbRoIBRNnUuF2NK21BcJ48jtjhtU/tQncuq81BcSSQlRWR9RaUWkyRAmCbTVTQxVFeGpxmeTWjynZxOYWeu0lnIHQddxghvQYdMXpF+LjBBrEMhcPEB67RIyKJjiZLXPASUIRi4u0lhZuHI2DGmJBNA1uo+vDPWwWknGC4U2ketoHgKBF4FxOVaVpsDDtsVBDazG0QYhcU8WDh6DASqTtic+LWhA9ExfGZTVqQLHjZAzwZHubWFKI+wMgzpwZTycepUlq4ZiSTWghhk5UVbEwH26Fsvk+1gzMpl96iaMaCCDT46w1ST3gsBmqJSE6SkO9VFlhamBQi2+8wHGhd3dDfowzHXc14RCW8c+GiMB9Ob2iqxidsJygZogiDd7WzSX1+MM2thrZrgVcbwMHquTqKrb2jB3igvEkbg7ArjHt9tiybGwAJm/pY0o2od4EPWkRtaEe4gTS0cmXNkP6AYcuuN5KklxTo9OFEtdQhmSe2p/cpwmWdcG+cF6u0d8fz8KCiIMkAqcKraMDkYV/pxaTaK3b5hQQUeDGUQtuHKx3osJLv7FwVOXl7Man5FQrBuhO1I72cOaBEWSNjRr4i/h8mh2hlOqV0Wh37KYdW7KJ9hNaYSCa4tFsujMFC7tYqhByjt7fL3s8uKBLEofpoSxHp03EwtQ0oTA/vpbHVUhiEYgvLIqoWUC1UUf70PYm9zcFCbGT/V5Y1qkq3dyIHoSLSy44IejzMtTsUT25oDtqDVHTw+FwdqYeYrdCRV2jcdQMWZa9HkNROHbJ2HGOsB9lpmNNNuEyB7hU18ExhG63owAaQiFMRKbROjshcCp9ktFmQUEfEDcmUdtahYKjyNxUTRykDGEKE2TUp3EgznQSCibEDqlPiB4OQVCR9raBMTm45yKxU2sHzoIMIsHgIlP7C3jS5i24zqu6ClEbrs5z1OACCyGs+H12uegyemrxmujWjzXZFGkwgh2ckiI+LIeTEsWQqWmyx23QAB1JK5gAeFt0AmfD7QbFcTyhcWUK4f2bm9W6WvYzWQUTdg2OQ7gS3e9D93dIibZSQ3SMUEjxemMJ6OHdPYUpuIMM1oO+PqmsDG2FIImGPTCjUELAMZfIu+2iZR5W+phKOAZlE05KMPMoiuQq5neKRLICDgPkA72/XyzKg6hGNDXJuxdhNk1TbWrSAuy2siGQ40QN1ijDkMpLMfZInIVtkqCMEILK29srV1exC9+xU+yROdBxlqU0Nqr1tbbDVpRxniR4ARjU2A/Am6ZSV2sHugHNiQOJqKFdyZRlMS/XEARg5og8PPPfwssxKJs4+xLLUrwe3K3DBQ5jBdrZbDfEspS6Oqm8DNb5dHBEskuycUAk+4KNzOthgpgqFwg55X/AhFiWHgzCzZR9vTA2aOFkwygSHoQcMAJN1jPgRW2B7yEqjnziIYYBa/a2Fo5vZFXJ9o5WJGRCiFTFFCLguCg8SYjW2irkHB7o7r9J8XQMyibkS1D16eF7BSNvRIzMCEYBs5SQewSsG6kwehE1mEjpZYqy281jSEeKVMbxhCg+H9xSPZb7RCd3lLPRaBG1sVHr7LAXsoAv61a7H7WuLrGoADULLDW5kCbYGk6HtOO07i6I8EelEkorQJMu2dl8aRhiaTE/WshxT7DJlM9+bMomxuKUFRSvF8MSsI6nibb9xZJrqqXyUmLoUCQ5fX8G8xiqCQitWleHIVNg8rXPoDHc4bqnDljSwt1K6IIKXwZXlly/EHLsJggfXF1l0jhcXNRy3E1dl1wlSl1dZJHkQmYYNAAqyiNFkaoq0NiP8EO/2F+JZalNjWJRAaEzSvJru8MQHbeEY1M2IXmYCk3v++X6BcxRdO0G51SCwXDmAUOWcKUA/DFuhJ3AinCIWuCp2BM+mg0hmeDsPl0g0EP8kEFVRVex7PXy3b0JBGhcq2YH0CxLsnUHxDcSES0QEPJzuTdpivQbszqBsb+2VsJzNiCv4LI5xpMYeTX3COqMIJSjbQWMK72Tt7JjVjYBQ4OoIYYoCgV5fE8aGR0ZQqoskz0eXMwBH9AlRPL2VQRkqErA3Q2VFXJ1JZ1+qXJkmoZhmIRogYBS7rI0bcBAY1vT+FydpC84c1iW3tMdOnzIUCCEKfQX/1fXw0cy1da2yGVRSognEK9URQJTd0mRWl8PDGov7vBFdtfA5aY6KPKIdXpNF8H4k/KKzCSK4tKlS6dPn15SUsJH0Xi1j50Nh7nr68TiobYJIxyWykqMMERx5quG8Wp6QutBmYLCVO/pEQvz0LYaqfQpVZW9NdW+2tpOGgN/QuFxXvmI0pDKJRCv8Oi6XlOtVVegPssmD8vSWlukslJc8vAudg7DVOak8gY5X21uhrsUe7rR0oSJsGVckKd1DxzBiezTqYR8Kto+ZvUmIKbNCqZhKHW14ezDzJ/AMLTOjvCh/fZ2ib1XMhUdMOo22bxqWVpPTyjrEBzQUVVZlmvr6nauX3/33OvPnjHjv//7v5966qmOjo5gMNhHn6D99NMnZD9h+ggRj2g/En1k+1HsR7UfzX70iAfFC8qaSJHkEF+/33/fffe9+NxzX7z+av3nn6KbuKFpNC449VlDvTg1VuERSNs8SeBqmSZkQqCPaaidHWJhPt6nYtJtVSiWcghG4DrG12NZNuEazZ5aLWDrgqNqoFHxekNHDotlJQMmcCrHxkjKySyO0yyOeQii0N4W/PRjsbSoPOvw1Zdc8n/+5V+m0ee44477/e9//9prr61evXrVqlVr1qxZu3btunXr1tNnw4YNmzZtepc+77333gcffLDFfrZt2/bhhx9u3749gz47duzYuXPnrl27Pv7440/os2fPnk8//fRz+uzdu3ffvn1ffvnl/v37Dxw4cPDgwUOHDmVmZh4+fDiLPtnZ2Tn0yc3NzcvLKygoKKRPUVFRSUlJKX1cLldZWVl5eXlZWZnf79+yZctX//mfp02b9v3vfe/S00/98O23291uqbIs+OknWkszGmigZ1Ou4yKmTLAYtrUJhXlqY4PsdfdtflcsLY5Uo7CXJ5OvkqqtqZRNhBBBEJYtW/av//qvE7GmY7ZtvmQDJ+kmsbhQqiiHm5QoZ+OSPhWZgIkn21yqB4NSeXlL5sF1K1def/313/ve96ZNm/bVr371zjvvPHr0aGFhYUFBQX5+fl5eXm5ubk5OTjZ9srKyDh8+nJmZeejQoYMHDx44cGD//v376PPFF198/vnnn3322Z49e3bv3v0xfXbt2rVz586PPvpoO322bdu2devWLVu2bN68+f3333/vvfdQ0m3cuPGdd95Zv379WvqsWbNm1apVb9HnjTfeeI0+r7766iuvvLJy5cqXX375Rfo899xzz9Ln+eefX7Ro0de//vXjvvKVadOm/d3f//2lF164d9NG1V2jdXWBwmRvSqaeWsFnFbvj1I4OsaRILC5UfB7q7QG6JkqwpJIUkw/MVMomiHkmSXffffdxxx1XXFwMHv2GgR0zboSgrMDXFNDlEZcUsPRxa2yyKwLkbNyQm/HOXiEc3rhx49y5c3/5y1+uXLlyjGDZLQz8xZUa/xeXb/zfiIUde7XXfPDXXgiyv/YCkf2VJEkQBFmWDx069LWvfe24446bMWPG8uXLC4uKZFnG6YSNWxzkY8RtSopz8UQpCujYcgre7R6dEtCSqtEpk01ofjYMY9u2bfPmzWuauDsd7RU7cAJzMGb9z3rCzpBUHeMQGLSVotjAInzMiqL45ZdfVlRUoGVqQLREvDlsZfKzeTyeFStWrFq1qrq6mrfOAadjOJVtMf9/e1caFGVyhk0l+ZMfqaSSSiqVH0mqUiab2orrmlSCRkFFBFcUXTAIrgq6IioeqBFERMWDUwRRGIQVgVE8YLlRThHEWW5Q5BBQGEduOYZjZr6jU/31zMfgRhgjMNf7h+npfr/ut5+3eaa7v7ffVhnpHcOpsvkeG3VCa9ykbhV+rjRLtuHb4gc3bohrbJZanLsxxXWJTCXUe8dDSoqIPuoCup/mMSQ/Y8RSE3/1+RcFd+09hiMFfN+NOaE1biKgq/+H8DnGbI+P7zuBlAx+skbmt1fVi96X1kABnh9wHercp8GzShH+QU6NiTpIPq+8QqGgVWtwXmHNWwFJvUZAa9zEDzWS4AerXqOpo8pzCz81nPmkkll4W0yvPxbF1KH83f+gyQvXDOEdZYuqHK7diXonyXAtTa8YSBgcAlrjJoNDUkc7xJEJphKVfvyeG5ehRi6ELyb/xTLKHH4RQhbDygonsRvmrcnP8z85JFulA/kkhfw8yugjAAAJTElEQVQTXI2c3GQx+GakCAA3Gbjh8ds0TCB0Y2VhalZh/4icRXRTRUl87M2XfWMsy75uqUjNyGmWDNE0LZfLKQofeeH8LrjnyC27ZLLEMJRCQXESCMlL87JbOrq5N5/YhZvijlkQJ3uGITk0z034O/cmj2EYmXRQ8vLViIweGxCXlIgGZRSF68XCPIMauFWgexogANykAUj6LMKwnNcEYgvjTptafyVqG0BMX8CuDT+Y98O4Yhz+KUVwdI3j14XP+9V6qaQIjiuUaYaheQGFTIGQ3Nvhi/TCCvV8fPcdL8QlVEEpJ+X21uS4mVmV9yOZuNjr3IVBVaEqci1QlAoR4/4EbjJw+7MMS+OQnuhNRZLlEuvEh+1UT7nDRrOf/uxH+yNzFON9oXvXObv49FKoWlTs7+d3PeVR3xjd3y1p6+gkM6hX4vaXXfiE11BnW3KMILuwVIEXevKzDmuyCyoQQgOvW5OiIxLupUkphKjh5mfPXzTW3RYmpDyo4yRZVjGclXI7PqP4RXtHb09n6sWDn/z6dx4RDxpq8j3PnHyYnx19NTI5pxFbAtZ0Bj4eP6B7wE0fAJZeiuKDzDSOgTnw9Kjt+ut3vmvOjNps//VpP1dTx8D2pjIXqzWHQ4paG/O22JrbbNpsbv7ZQd+YjOTrPmcjunHwGHQp8OLd/Mre1tIjO21XLl+9drlFaHwKQqzv5tUPCiu7mh4d2mFrbmZptWJ5yFUhJX+9e9MXS5aYWJov/e3PV/pFihBC6VFhK5eYrXO0X7rC8mxQzMkti+fNm2diezQvP2uVhYm19Wor06V/+pXV45puVSAUvUQalJ5ZBICbZhZPnasN704zDM2wiJEJg49djLgWcf64i4egq6fBwcwiXhi3yX5HWq2kpbZAmBDb2PhccGrzgr//Kyk7c5/r4btlr6nemlOe3t+VPfHdY7dy25H7T2oTw3z/usi6snvo0s51SUnfntz31aptR3Mqnuffithg75ZfWe5os8TpeGhPT0eExx7zL8Okg41njrjliVrG37YEHHb2DU6ofnDDdP5CYdXA27aSrbt25daIxwbEsafdQmNLcDxPfDZA52AEheYeAeCmucd8blvkyImmKRah1uJbRw44bt29OzKzGSEmzdfexsHVebega2S8Ni/lsItr0GWB1yHHvyxcUFTbHO7t7XpKmH3F57znBUlHtbnZP1Zs97wSERkWGnTAK6RSLAl12Rh/I3qNteXyrccio65dDvH3CLxR9LjAycEiKgNPl4rTotdvv9zVnh8eGiLGd7KhuoIEQVxq48PbNgsWZ7RQI+2lPgH+g5iJxkV5wvC4Anz8lTLa4P1zOzB0vjXgJp030ccqiB0IuGUdK++td9hgsmrLnooOfF95XW7o7/+88PS1UsV4f3TQibMB14ZltCgtxGSpyeMXnQXJUSuXLzNbZhp8JZFStH+5dpmbX2KruKeh6nFkZKxEOhSy0+bWrXinbXb7L9x81dn/sqE8MTm3vr7MyX5VeNJDlqULk6PWbQ3reyM64+lZ3TGKqMHYM24BYTebCu+s+/Sf6S3ykY5Sr/PnunHwuNHH2fHhNwq5M5XATR9rcsN4HrjJMOw4VS84ryPOlYAd2m5jab/33CB335WkPm/xgs/vVYgRLRVG+nmfC6sQPXDftPoPv/xNQm51Z1PxtmW/+PF8y9TKLoRksT5OdjbOwtQCQbCX86GzUob2c1idnpWbGLjfboNzYmbxnZhgD9+QjtfPHTYuC7v3ECG6IElgYedPUVJfH48TF6PvxV0x/XyR++m43tp8u0//uCs8v16Uc/y8L8dNIyVZNy59Q+ZNsKabyprGUwbcZAy2Jg5LmKOqip6IKl8R/0vZ6EBxfkHXkJxFqEfckhAbExUd/aioKC0mtqCoiqZGn4pyUnJKh+U4EolsUFKSKbwmuBobf7NJ3IcQW5WXLX7TKx968yhTGCW4Koj+pq7pJUtL83Iy69skLMtI2hqy8mpZJH+Uk54gvJuRkn5wx1afwLvyMWlZTnx4zP2nda2VtdVjFEKsorO9+VkzucsXfAiMYUxO30fgpukxMhwJlffROz6O73wl/VXJ4hf7am7lSjCm5Q+WVW5os3TvqeOuO929A3wP/83CLvp+teHgCT2ZTQSAm2YTXZ2pm3MbmjgER3iHZBIHSz79TkAV1R1E6uVcmj9q8r0SksG5KjEUhT02G2tF7m5797i537lfNs65f3Mv4/gn+XMxWC9Su84gB4poDQHgJq1Bb9gNk1MuhGrUe8oTktq8TL0c0oCAEgHgJhgKs4QAnpCRSZDyeB4fh4msIf/nSnKWdIFq9RAB4CY9NJqWVFZOeSZWYGTTCWe/RyNlycRciXDV92dT73keso0ZAeAmY7b+/9V3non4e4qmqmaCvwhDkR2lqZ6AMkCAQwC4CQaCpggopz8IMdT4wNthmepFHM7XtA6QAwQ0RQC4SVOkQA6fGsZ7Rgw92l94O8Q/MLhXyl0ITjaWACBAYEYRAG6aUTgNuzIScY6hGYSk4uy1i34S820pdyCGC9sEcyfDtv6c9w64ac4h19sGef8oHBAKoeJE32NeQeMMF+gAL+uAnPTWtDqpOHCTTppFN5XC20ocQTE0yzBDHaV73P/T0IMD+3JR6PTvkl3dhBm0IggAN8FI0BQBfsdbFYN87JDLzqzyV4iLKc5tiMPUSVMwQW5aBICbpoUIBHgEuDd1yms5ZQWZCf+2XHUsNH1ARtZ1ENuEBwoSM4AAcNMMgGgkVZCtcBzfV9G9z9l2vXvQ/eTotWs25T7Dt60wNPH7NhIwoJuzjgBw06xDbDANYPcBFinGhv33Oc5f4VrVj8Yl1bZWVieiihV4G4rhYw8YTJehI1pEALhJi+DrWdOEeupE5Z985pT7AgfZpcb6gl3sbewPdA+Oc9cQgBemntlUl9UFbtJl6+iWbmTNJu7oScvFF9vh+xEQ21KTn5Z0a1A6qjrQq1s6gzb6iwBwk/7abq41V58U8TEFiBKkiNsqn2utoD1DRQC4yVAtO1v9Up6qIw4Fqi+z1RjUa8QIADcZsfE/sOtqkyPsx8R9VZETR1Uwb/pAREF8KgSAm6ZCB8oAAUBAWwgAN2kLeWgXEAAEpkIAuGkqdKAMEAAEtIUAcJO2kId2AQFAYCoEgJumQgfKAAFAQFsI/Be7TIGmvTSr8AAAAABJRU5ErkJggg==;" vertex="1" parent="134">
                    <mxGeometry x="10.969999999999999" y="30" width="288.06" height="140" as="geometry"/>
                </mxCell>
                <mxCell id="202" value="" style="shape=image;verticalLabelPosition=bottom;labelBackgroundColor=#ffffff;verticalAlign=top;aspect=fixed;imageAspect=0;image=data:image/png,iVBORw0KGgoAAAANSUhEUgAAAaoAAADQCAIAAADZI7KyAAAgAElEQVR4AexdB5wURdYfySBgAkFEDIiKeubASVI/9VBOzzOdOZwRs3LqoSiYcw4gKCcoEkRAFAQ2sTnvsmzOOceZzrG+36vX0zu7O7s7MzuzsfunS091xX+9+terV8lGrMdCwELAQmBIImAbkqW2Cm0hYCFgIUAs+rOEwELAQmCIImDR3xCteKvYFgIWAhb9WTJgIWAhMEQRsOhviFa8VWwLAQsBi/4sGbAQsBAYoghY9DdEK94qtoWAhYBFf5YMWAhYCAxRBCz6G6IVbxXbQsBCwKI/SwYsBCwEhigCFv0N0Yq3im0hYCFg0Z8lAxYCFgJDFAGL/oZoxVvFthCwEPA7/enwEELov/S19Q2dfQXdiNiM2UzF1witcBYCFgJDGgE/0x9lvrYsByzltwepFaMz3/2agt+yakVkIWAh0M8R8Jz+qBJHmU1TFUVRNap9gZoHv1UnGelUOyOEqE2VZRV1PNGlxoqysnpW03UaTlVV+JdGobVTFI3IlDZ+NJoeBtAJ0WV7RUlZAwevVCGEFPs5ylb2LAQsBPohAp7TH818G57BH65Ouk40VVM1ojYlfnXz3MXLNucR0hi3/efNkcWKu9LrlETdfXHvBnHXh79z6/z/e3ZblUAI8CRE4ZoJ9yEtVwsBCwELgbYIeE5/TlVLcxTF7t5+ILMR+EwlGrHnR+78Pb5JAgoCRU0nOhu99MJZlz75h0AIkarSIkPDMmtVpfFQ8B9747NyknZ/t2r1up/3plRxoE2axjyIjymM3f97REpa/N4Nq75dv2lvcnmTozh205pVq7/fGpnfDEkQQnK+mj/r7Ps3AqWqoIda7Ne2Vq1fFgIWAh4g4A39aZqiEV2t2vrg0Tbbwq8zBJ0oOmna9I/Dbcc/lccBj6myRohWtevJkyac8+wflUTViH3rIpvNdtUPDBe9ZLLNNuHsxTffdvP1i8+detSky1dE1UmEaJqqwf+EEC7rM/A95dJrb77j+qtmjZ1w/MJ/3P6Paxdc/fdFF06bdN4jmwtETdc0KeXtK6dPuvazHJFSrualDukBLpYXCwELgUGPgOf0B6Y2VQE9qzly5TnjZt7/YwGMOat+/uf08bP/Gy6BHqfJGtH1lrDX5gybdMO6LMpK7J77Tx4z6p5fWDH51bNsh0++9uMknhCihD073Tb1rg05Mih9wH8QNVe0/oHJw4++eNmuRkJI8Zqbj7LZZiz5g/r5/YZjRp/1SpwKCdXveuKcw469a3upqus0tKX/DXpRtQpoIeBvBDynP7DraaoK/Naw78kLpp/z2LYmXdODn5kx6qT7thXBCFRTFWDEso0PnjHm/KWRMFQlhP3jruOH2e74heNjnz1t9PF3bJcI4QRRz//uuiknXPVhHA+DXwVNeETI/+bGow+7aFkCTyRBLtt634yR57+RYCeyKNmjnv/LxBMf+g2oUFfTvrj+yKMXrU7nCdE1RbXYz9+CYcVnITD4EfCc/uhEqwajW11v2PXMheNPeSREJflvXjJy2v17qlWw4VHDHyHF6+45bdxlrybDyJQQbvfdQH9bWC7mmbPHz1iyV1M1iegkf+3Vx55y7acJYB+ko1+gMDH3qxtmHDH/3UMwoaGX/Hz71OGXf3KoRdN13R625PQJpyzZi1MoeRvvnTbizBf3VVIytKx/g19SrRJaCPgdAW/oD5jG4L+6P587deKcd//8Y8VV00+486caDdhPU1UFZiGc9AfEBvTXqv2defiMh3erhIAGl7/26sknLfqE0p/uHPwKOV9ef9JRCz/KokFLN9953LB5HxxsAWZkwp84Y8JJj/4J9KeTvA13Thn/13eiGumY3KI/vwuGFaGFwOBHwCv60ynHKUBAdb8/dPH5F82dc8KUS5b8kg/sp8GchAxsVL3jybOHnfrg75V0PQr7B9X+6OD3rPEnPrJHQ/or+O6aKSe3pz/Q/oD+MulotmzznccNn/9hmh3qgdLfyY/tgSSIEL1i4eiJ16/PlWDMrdBpk8FfWVYJLQQsBPyJgFf0R8e/uirBBEjtzpf+dozNZjvr2f1lIl2urOm6BsteiJ793a3HjJ/3fpIAC5KZ3/41yWa7ZTPLRT9x6ogpD/yuEiIRQvK+vfyI4674IA7mQTRY6Awzv2L2Z4umjv3rexm0jKUbbznadum7qS3wyxH6yMkjj/v3LkiMlK6/c+Zhpz99oI6Ofa2lL/4UCSsuC4GhgoA39Ef3WBCiK5KsqnpdyPILbIf9Zdn+JjS/gbEOxr86IXzaFwsnz7xt1SHgS2bvknOPm/bobxyfuHz+zAuXBhnaX/HG28666F+rUmCIbA5+xYLv77n49H98k0vxr9ix5C/Tbvg60wG/2Jj/zp158fP7ZZ2Qut0PnjvtnKd+r7eGvkNFUK1yWgj4HwFv6A9S13UdtDRCCP/nU7OmX/NudAM4Kob1ja780wmp3PLgvLNu+Cxbg4/o349/a3Y8e855N35zELRLRbEW/fkRWisqC4EhhIA39EepT9fV5oq0fVu/uPfSM+cu2VgGE8HmxjMY+WqKoqmE5H537QVzH1uXw+u6IksyjE9BN8RxKjCiTpfRIG3SHSXUkbrifmJgTjME5VhZFjVdbgp5fsH5lz8fZKebTGDhXwAYdgiJgFVUC4GhioB39KfSadfK2FUPLLjihufWJdUB+emU0pCC4C+1AGpESPjy7fdXhTeAk1+MczpsDNF1PmvHO8vf2FmgEk3Hgxf8r14OVWmwym0hMKQQ8Ib+KDBtNS3zyAKTgozv5gc6YPYbpGYyrYPqthnyW0pWRBYCFgKDHQFv6M859aGpiiQIAh3RojmwDQU5vamyJMu4H8Nw6hmYzng1RZIktPj5Jd6e5coKbSFgITBQEfCG/gZqGa18WwhYCFgIuEHAoj83oFhOFgIWAkMBAYv+hkItW2W0ELAQcINAb9MfnokPNjtqL3Qeke8mZ5aThYCFgIVAQBHoVfprR3ntfga0nFbkFgIWAhYC7RDoVfrDaWLYMcLzDMPAZl/N2EPSLlvWTwsBCwELgUAj0Kv0p+u6JEnNzc133XXX4sWLGxoaRFG0xr+BrmMrfgsBCwG3CPQq/ckyHPS3adMmG32+/PJLuApJgvNfrMdCwELAQqCXEehV+lMURdf1HTt2DKPPunXrdF1HTuzlYlvJWQhYCFgI9Db9EUK2b9+O2t93331HCLHoz5JCCwELgT5BwKK/PoHdStRCwEKg7xGw6K/v68DKgYWAhUCfIDDg6c9cPIhLqa0F1f4XI5c16h1Btibu/QB4lwj7IX4rik4QGNj058p9ZgENBrR2lZiI9OAFwKTBDVSdUbUD2enL+dn612MEDOgQUJejk5wOAL8Fr8dweudxoNIfCkT7NulSdqt9uoDhyysg7MJ8ZhQArPNHO/ydzta/niLgVozbBTZBNl/aebB++ozAgKQ/V6HBpqiKolxZzudkiwX5clOTLsOFSM6zCI3W6tJsfYZryAWEJqcZt6koLXaxsEDIyRZys+XGBk2S4GxvqptYLdNryaCQGZodFU1dlpXmZrGoUMjLFfPz5LoaQNjZ13R88TpFK0AHBAYe/aEcGH8JUVlGrqxiIsPZ6EghL5dLjLfv281Gh0s1NarD0Y4ETRnqgIPl0AYBpDP4SwlObWmWKyuY0CAuJVEqLOAPpTqC9jERYVJ1FXrAzYsWvG1A7PKHq2TqmqY0NvIpSY59e7i4GCEvl09LdezbzcZFSxUVKuNodyOOdblNl9B68XGA0Z/BevCPrqsKGx/jCA0SsrNUloWO1Flwub7ecSDUEbxPyMw0WrIGdy05v1v/doUAAqXBvfUAHhe6r2XXdj4rU6EX3O/avTv10CHYrtPc3LJ9S8v2raikmFXTVdTWN4oAyi+ASxVrITuLiQxXWloMTnSipAmimJfLRh7gszI1UdTpHnnsk5xerH97hMBAoj+zgcFtworCpR1s/n610tJMRxBwekIr01FMVI5r2bqJCQuG3lKDB2PoEWBDIzBtmXAaBRcXXf/8o6oEbU+RZZ7nzznnnNdeexWOq6DdSeN7K5u++Qx0QFU1K2hogORjKQ2UoHfRdFUVsrPYuBiV5w0MXcWYIqxrGhMdySUn6oqiUzGGqRCrL/cR/jbBBhL9oaFEU1VCCBOyr2XbZiwKuKCgOMUCL9WE3lJRmr5fLRYWGGEtBmxT+25+UAihlYF+V1basms7YEaIJAi6rgcHB0+cOPGqq65qamoybrXXSfMXHwg5OYCwBa8bRN04IciEEDE3u+Hjd1SeAxcq2CioEIaOcABSYEmNTU0RC/KBIqlLqzc30VtOniIwYOjPbJY6IXJ9nX3rRrm4EJqpCvuI8TELbXSwVB+RmxrtQXsVux2aq3W+lolR5y+oJsvNzY6wEMXhQJrD/drLly+32WzDhw8PDw+nDRY6HlVVHaFBckUFnmDWri46T2eIfjHw0XVNEBy7d/EJcYCbonTU6VrFWNNUjmOjI+WKcmBA+gxR+Pxa7IFBfygH2CypHETJVZVdqxsQxMl3YkmRIzSodXRsDRw6kSFsV6jEOcLDpPIyBFmliklRUdGll16K+7U/+ugjlfYu6FmqrnaEBisMY4zOOonfcqYT6XBdNdF1LjlByMoyxNjFcu2KkiHGFH+pvs4Rsh86ctMIaEmyK1jevw8M+kNVHxsnn53JpaRAq6Pnx+AntwU3TMWwbkPnkuOFrEyUmy6CuI1niDiafQwhBAxSyYlgmKddCB5LsXnz5lGjRo0cOdJms51xxhn19fWAp6ricIzPyOCSEkzdBGMbItB5VUwYgui6WFXJHAjRVTD/GVh1wmUGpJQB+fRDXGoyYO7s2r1K2vLcDoEBQH/IejhuVRoaHKFBKgfzvOjSVTMzlBmYT1N5HoZyLXZ0sxiwnRwgjKjKyQ0NjgMhSksLooRas8PhuPvuu3Hke9hhh9lstrCwMKwFrAhNENiYSLnSGAJbCLdDGAExhFlV7Pv2KE1NHooxegOiVBWwM9TVmLF1TMVy8RyB/k5/2CyNcaui8GkpqMRhQ+2K+5wYGGEJEYsK2dgokCSzv3X6sf41mE6ls73xMWJeDjRUOs+II9+amprly5ffdtttJ5988qxZs84777zVq1cjtvAXp0qKCrmEWE2WrT6mo0SZkgzKdUY6dygVMHeuVujo39XFIE0EuaaaiQjVFRkVc0+agGtU1rsrAv2d/lx7ObmmmgkLBlFQVdQ4XEvi9h3lBkRE1zWeZ2Ii5VroOYEBra2UTsgAJac2LVdWsAmxKscZGocTQUVRZFl2OBxPPPHE7t27eZ7nOJivNHgTJyh1nY2PlQoLzbDOFKx/AQHoswnMeNiD9qoCD1MYxoYaj/AxB7xsbJRUXIQg03itBa0eAdjRU3+nP6PKdV1XFGhaaIyndhDP+z1owrTnlCvKmcgD8JNarDrCMWRdUIPTgb9ipCKDv3A5EWKC/Y0kSc8880xoaCiynvnXbIqwOSQuBlehG3p3JyatIQW10YlQIeRSk4RcqlxTsfRQjM2eBhZg2u324H0o1fB3SEHp18L2d/ozm5BcV8uEhRjNzJsaR/HAeDSe5xLjpTKY0MQhsCU8ri1TKi9nE+JgCa6zw8CvYDylFgOe55966qmgoCDaH8GSI5MBIQTtlthYIFAM6KGS7leR7qeRUSh0tcXOHAjVeL4nkgzL0VOThVxYawnR0sFNPy12/85Wv6Y/s+1pms5EHpBqqqGN0TbnFW25NkWptISNi25dQN+/q6d3codNCPTrpHipCJaIGy4u3QxtvUQQhKeffjo4OBgJ0cweVgf2MXJtLRsXpTpbOHxyiccMMnReUPzoyJdwSfFiYYHh4pUQU7zMgIq9xRGyH8ysuEtk6KDp15L2a/pDzQKux4Q9vCHmnkffmpOhAIoilxQvl5WaCqBvsfm1FvosMteOQa6oYONiNAmuHoWnbaa6pj+zptAbGxMllZdhNAB726iG4C+UPaWlhY2OUBnGXJHqg+whwrqm8xnpfEa62VcNQVR7XuR+TH+09WBlM5FhUjWofh1apacIYFiMTczP41KSNNxB6XOMnqbc3/0ZvYKi8IfShNxs7BWgWbYlQISuM+3PLCTGJtXVMTFRuixRcz8dnZk+htiLq+DxdMSK+hoC5QMYGCEYH5qaYBxNxRgdfYhtiAfpv/QHuh6tVaWp2REeCpMVPd7uA22YbjYCA391ldVzUhMfLHaRGxqYyHBNFHCxS0d9zRP6M1omDMc0JjLc7LFw3mnItjRkOpVh2JgopaEBpa4n3S7Wha6qXFqKWFDQqksOWYh9LXj/pT+zUtnYKLG0FMSlZyvdzcYJC68yM4SMdFxwj72xrwAO4HDIfQCLqgo52XwarEQzFkW2Vf2MfoJ0avtzRQEbp1QBsyhIfHg2jKufofNuzgjx6Yd4FDk8tcVXCAwxphUk1VQxEWGgFqAFsEOt+ZrIUAnXT+nPrGOFZZnwULCj08bakz4TqxS7YqWlmY2PUe2wsQGb61Cp8LblxLKrLMOEh8CJcp23TPTZ7eDXrDhdVZmwIKWl2XRpm/KQ+AUyS8uvCQKXEIcb1VECeyjJUB04jkmIk2qre6gZDInKcFfI/kh/KBnY3vjMDCEzE63n6OKuFJ66GU2RdpUwB1eQb9rseyiOnuag3/hzZSWprIzDc0c6VyI8pD8sn+E5J5tPh4NRe15x/QY2LzLiKsZSSTGbnABHWlFC9CIWd16h7pw1JRcXsXHRCDLWqbsQlpt7BPoj/bVSEmgQwUpzEx34Gg3WfTm8ccXlaXJlJZcUrwnCkG2fyEqaLMOh6vV1tE2BHdDt4zn9YTzwV1Ec+/fgyRRDs2UaIqtqsEwvPxcE20lbbkH2wtFpCFLsLUx8LG0joLt7EYPllZD+SH/QcvCEn+Ii7mAK3FvkrOyeV5lTIuHMDCY8VK6tMWdUhpQC6OxMdDjgIDSoW/uR5/Rn9l6EEFhIWFoyNDsYU2iVhgZYTM6yposfxBinASmZglUx/aDBrdZWTm/A7Xf0ByJCxQQ2YEVFyOXlgVDssTGL+Xl8RjoeFj3Uek6zvPyhNLEQjACmi1v5wa/d2v7MsGjhgglltM0bdNtxStkMMahekOmw0DCtlJQACNOdM/7pZeksB1YKbNNOjNNkuBau60ocVBD7ozD9jv7MAYLS1MQlxMEaUee1Ev4oL8ThbIm6JoiOsGDYoOp08lcS/TweZ3F1TZLs+/6EtWPOp7Oce0V/GBlArShMRJjc0jK0WqbJTbqusiwbHyc3Nvh9dsJkWFUS2eRE3A7vl3mVzmRg8Ln3L/rDZoMtjU9LFbIyjJEpVfL9iz6mAgsAcVVNd+qPf1Pv89iw+FJpCYeKSXdmI6/oz0Vh17j83KaoSK2nug+IBlWgFEmSVVhZqEiSpNAdJR7rU1S+wABnRAK1EIDFIq3mFEKUariFtVvbgm/yAAxIzURCZgZ3MBkNi1hTvkU41EL1L/ozm43Gc2x8jFxXiy5+l1GQG9oW5KYmJjpCU4wj6jxuSANYTrCPwZbDhIcpjY2mSxelwlP/8MiDjnt+OwZ06ib0S/ZBInLQOLsj2Y7xdO+i66osiZICZn+D37oPFFgfOAilkz/cwWSppNjvqp+Zf1T3VMYBC2sa6PnbAdAVzOQG2Uv/oj+QXrrIRcg8JGRmGD8Dw0lG+ySET00Si4vw5yCr3c6KAwqCrsN12umH0BrXrcqAHiRJevrpp/fv39/uyIMOCZmMyhza9vFb/30/PjpVcx4b08GzJw66Brt+SF3yr5++uzaqWmIObVj6zIpt2TBx7/FjSJeU9+fn76+PrBIhoL+1P1ehlWpq2Jgo5H1ExOOseuQR48SqEbIyzcMUuq1Nj2IfAp76Ef0BAVFZVFmGTUqQ6+ta+0x/yyjWrNFzcqwjeK85YBn0lW7yviPoT7icyPl0XXDU/qqrq5988snoaFhohreeuw9F71UGaqn/7V/jbDbb+Dve+5OovIR3VCiSKEqyLIv0kWRFVRVJgh+SrKAM6KosirKiyNRZFGVZFOCC05SP5tpsxz4f3sCm//TCsyu35fCqUHlgzesvfby3VFI0iFmEsTHNFo0EB8gwSlQkQeAYQZSaNt9ks528NIqe5q+poDzSxHFUbSiR7gvmkauzCCqXkgiqX4DtKoYYs6xYVKiK0B8ERmHwqOwDy1M/oj9znCuXlsB+KbzPhTbOQGCKrR5lhYk6AMZpKqaDW3QM7tN1ub6OjTcOpvdEWUCyS01NfeGFF/Ly8rrW/uj+RFC1stf+/UjbxMlTjj/j8jcra0o1naj0PP0uK9R9X6eLik5I+re3HDfiopWRdS4x2DcsPtx29odgKOnsaVepIU8dP+ayNxPpHZ5K2zAwcqQu7YK09dXFLxNhlWEcQfsCfSSB0XlRq4JUXKQ4jNtsfM1+FyUbhJ/6C/05VRBoM3xGupBt3MoW6FrEdMXiYu5gcn+xHAVYzNBYziUniPRQUg9JH7W/5OTkV155pdB5nL37nMIidXqsO8l9/69HTFrwwtq3Fx8xcv6miEyql6iHvnvib4uf/OLjZ664YPbZ5192+xvb4vd/t2TRGWeefeE/n9+YYdeITuyhb11/w7K1G1/5+9mzzzz7kr8v25zRCAP21K9vONp21or4luaI16+Yd+unkdk7nj3v+KPGj5143Kl3fXQg8vfl/7z1hW15Ms1Zc+ibV1/z6M95BK5pb4j95uHF5545e/aCR9945sojR8x5PcEOTKeX7n7z/svOOvPM86975JPQOuBY5zDEPQ+7L7TpiroYXBJfWsol0vUueCKp6SMAL7ikRioqVO0wyR7oVhOAEvRNlP2F/swBgupwcInxchO1xwfCUu6Cc2tHzXFM0F7jsJPBKz3YMKDUisqEheBNY+jogor7V6S/lJSUZcuWFRTAkajo0sE3pRTUofI+vXD0tDt/qVYzP7hg9LF3fBFFdIkQJeylS0fZbGMvXfpzRNSOlfOHDxs/5eSrn14XFrv79cunHHf5a/ubCWF+vukwm23YKTd8uDs2dufrV06a/Jd//1xHSPZX1x1pO3NloqPulxtttqMf3NNcl7vzxYXHjzvz4R/TS5qTPr54xNELP06kVj1S+9MNNtvsNw4RIqR8fMtZR5338PcRsbEbnr9s6rDDbBe9ly4SUv7zA2dOPPGfH4bExv765t9PmnrWA+vyYX85JbEOZfPEAalH1zQmOkLGvTQBZiOoQTpUEouL8H4+g4J9om9Pyjho/PQL+jObJe0zS9ioCHChE1gBlhxjra+uqmxCnFRdhYQ4aGq3Y0GM7TSlJdzBg3glmycjX5PsUlJSXn755W60P9D9YJ4i65MFYyfevkMmREpdecX0k67+pJwXdF2NfOPKI22nLw2hA9iG9VfZbMfeuA4uoCIVa/45Y/ylr6bKRN11/5EjJ1z5OdwCTgjJ/PaGkbazX01pKvvppom22SsS7PW/3TNhxElPhaqE1P1w26kTLvsA7v7J+WL+pJn/+CZVoqHqt9497vC5X5eQht+XnH7CZa9GobOa8Nblh9sufC+ds4c+fYztuJs3GuPm8p/umDJhwXuxTaAAKr4c02pKsspxjv1/mj/9PsGCsJh/sRLlulqprBR3GQIDmp+tl04Q6Bf0Z46/NFnmDqUJhcZ564HmPsPITYUUNqUnxpk56QSugeyMbZEemwirHalJvrV9dlcyU/vrhv5g5Av3ghCS886cMcOv+CC9qrKyMmvrc3PGHrVo80GwTB1YPmfM2Bs2lkq6pknl6/42+oh5X+eB3ZUUf/+v0468dHmyRLRdd00cNu/DLAnH0eyhzy4bccyNPxzK2Hbn0bbTX01y1P929+HDTnwqWNT1wlX/PHn8JW+kaYRkfjH/6JMWf5VCeU6v23L7qMMXfJ/fHPPKX4+Z/eQBnhCVg6mBuP+eNHru20k1McvPtR21aHV6TVVpQUlFVcWfL5xuO2LRl6kiHDbp6W2C7ZBDJhLycgTzKOZ2PgLwE3UFTRTZ5AS4pY+qr4Hm3ACUo7ej7Bf0Z+hcuq7Y7UxsFE5HeqiV9Bww7CdVlmXCgjUF5yZhUWDPY+5XMZhXWaqCwMVFK02NONntYSY9oz9q9lNhMbIQs/zcsaOPnDb9+OOmTZs2/aRpk8eOmfnItymE6BH/vXjU8ffuqoStJlLZd1ePPmLuV7kU8KK1t5561JxXU2Si7rxzwvi7f2lU6Fha10s23zL12Ks/iUnZfvcxtjNec9LfkyEiIcWrbwL6gyU8WUB/f/8yRYTJF71+692jJiz8X3rN3ifOGHbucxGw6ZYXdI0cemvWuAVvxuf/8uCxthETphw/9Tj6TJ856y/nXfPazlwBQvsiA9idEEJgrwsacKiThyD77s25/pk5EIyr/yDZwNscfc9w/wjZL+gPTRU6IXJFBRN1AFQwP+6O7BJoc7SryzKfliaVlIDk05X0XYYbgB9pC9F1XS4p5g+labLkNHF5RPSe0R/dUSFrOmF3PXTKYaNu3QU3muFz8NW/Tjz+hq/qNJL6ygUjpt3zWwXMT8jl318zasJlX+bQTBStvW0W0p/2210TRl2zpoIQRZJUwiS+fd7hMx8JqSnbcstE22yT/p4IBvr79uZTj7jk9YOKoh/6dO7RM29akybIkqyThs03jRy/YF1OY/jSs4ad9ng4T3SJ4Qlhtt971LCL30ltOPjuwpFTHo1yZpEQqaKgpI5TYa4E+KP1gydvSJlEJwrDOEKCesd6gxmD/FJDOZ+RJuRkm6fMelkCT0o5qPz0C/pDQdNUlU9Px8O7A7I9oJOKM3tsubSUi6dHp1Hy7cT7wHTGpkntQXxivOvhSx6WxzP6g1kVWSVECn74tNFjbt7QCJejS7woy2rLgbcXDhsxd12ZPf+zy8fMuP/3SlhyIpf/77oJkxZ+AytpCCled+dZx85bCba/3+6dOGzqdV/BcfJ545wAACAASURBVIGESEHPXTDqiJu2NZPq//3zmBHnvpHsqN91/5FjTn02TCJ64Zd/nzb+8k/h7oLyNQuPnHLZm0k0VMnnVx9uO3LBN2WkMeSFsyfOvndzNXWvXHXrjDHDLv44W+QSV55uO+amH+BYDUK48P+cZrNd9H58C+iOCuyso+5e/EHKg6ULudmGVAd4+s7InDFZoyuMg4kI0yTn8QfeF8GL0g58r/2C/lD7A2txBFyBik3V6863B5WBGVCam9jYaJDgzg897kEifRmUXpwCu8JUgWeT4o0l5boXx8N5Rn+aKssq0at/vHmYbcxNPxdDJeqaKgOTtES9eZrNdskXf+xecZHNtmhzGWh/UskXF9psp76XQdHJ+/yqsbaZz8RLRN9135GjRk84928PP7fitadvOGvGJfd+FMUSPfX9v9psk5dGt9Ruvs5mG333HxzR63Y+d65t2Ox/fbUr01Gy47nLjjzq4vuXvfbyw4vPPeFIm+3U5cmEaGU7ll87/YR5973y2mvP3nXt2eD+SiJL1JKtT19+6uzL//3aihVP3HzRrEvu+TyiSQNNylz/53m14UhCJ4QJDVKam0zLsucx9MQnpg7j7tBgpbnRSL13yLcn+e7TsP2C/pDppNpaR2SYOfLtNViQbSk1CGJ+nuJwoOj0WgZ6IyHQDsCsKRUXwS13Eh6h6MUAzzP60zUVVu2VHvj+7VfXxTfIhuUOuxN73raXH/t4w56MsE3vffxrlh12caj2lB/ffPf7BFhzTkhTytYv3lsTXKUSbsc9R4688Pl161Y+8tCDj734ZUgR6Iq6Xp2w+b0VX4dVilzOjrdf/2R3ASxxYUojVr38/ONvbkhuIoRL2/rBfx9/+KGHn/0mKGXvD+98F1lF5wCksvC17zz50EMPrvgpOXHf12//L6xcoLpRXexP7y556KGHnnx9zf4iyFPruj8vasbgPl3H2yw10al/eRFHT72i7ink5vJZmYbuaWl/XYLaL+gPJE7T+PSDYmGhYbLtMtN+/2iaaeT6ermyok/y4PdCuUZoFpA/mCLm0Nss6boiVz9dv3tGfxCH64jRfIcMwBVTEsnH8Sxlmc4bZ9P2ByaPueITWMxiPMamX+fP1n/bRKK128RhBna/DETX6EkJLpGpzgUj3o8+cPEd3KKVl2tY37wEuTUf3r9hLw6Ga45zhO43a9z7mIZQiH5Bf1BzsuwI2WesRKPWuF6tBFwoQIjS3CyVwenEKMq9moeAJdaq3nI8l5ok19b6wO+e0R9ETPV3WTK33tLahNGvpko83xwXI1SW00Or8IgWVRZhry0tPd2kywuaTho3Xm+znfFyYoskioIgSE5LnGac7kIPvIJjXnCTBt3rS3/BUNvYwisrsGcYdwDTPb/4QZJVpfXAK2qtNAMY9j6jGN7UCGp/oIqGh+FJRbTcJv97E5evfs08OMJDzTXtvkY2JML1F/qT6+uYKDgWDc1wvYy9MdGn63JTk1haAoI7uCZ/EVWpvJRNhM3UOLzzSr/xjP46rTeAlOpVXHKCkJeD+r47ggA3OE+hsSAxPqOSg8GoV/nsNAeB/IC8A1ePMw42Jkpl4SCJXlu55VoyhBTO8smE8S8+rh6sd1cE+gH9SbBGFQZlxUV0tUGvdpgGFk5BUVqazbspoNW1GVi54jZg3o2SURO4kJWJl/niyMirMvSQ/tCkS2ChXymflqpJxrIbr/LQnz3jaFfIzuSzMjXNYO1eJm6nFOtw/1EIHErWJxTcn6upXd76Af3JMAPo2L9HpXO+fdVfoaRqAi8WFal22JwAGlM7tAbmT2gDuq5xHJeSJFVXQ9G81217SH9QrdQQpooiGxOFQzN3mj54pBqfpoIZDt/7dT0YpEMhZaMOSOVl5mCi9+UF4dNUlYkIU5zHH/QyC/d+qX1Ose/pDw5+a2xgoiKwDH1VVWZTFPJyjat/6CDRZ2T7SUBzFCbV1jJxMWjT9EH7wwOvkpOTly1b1t2eX/dFB1KgHMHFxUjFsCbGfNwHGDiuKDyKw8EmxKp2OEbQFKdeLgR2dbC7JTNDyIWrNS0FsIsq6Hv6k2G18yGRnqHUV9yHBibYakKImJfDJSdCywzQ4exd1Ia/PyH3IcuIBQVcYrw5CPU2KVftD0988aFd4QhRKi/jDqbAtpOBYNfrFigAGXpKIuZm8xlp2LX4AE63CXniAeUW1pM3NTpCgw0xHvg2HE/K7oOffkB/mgbLRFuazbbqQzH8EsRonLU1bHKiKsB2LbwPxC+R91Uk2KNogsClpMiVlcA4Pg3qUftLTEx86aWXUPtDQvS8XGb9qoLARB1QGAfNiy9baz1PtBd8QgEAUp2NjxGLC03Vr6/6chRaTRKZqAhcxKr5tH+5F6Dr8yT6lP7WriWEiAzDRkfgkpe+khhD+6NqkiaKXHKCXFGOzbXPa8j3DGBxqOFPaWqC+3bphZZgUPNeHZCpiXbnzp0vvfRSc3Ozb6MqgNRpI5MrK2kGqY3V+/z4DotfQ6J6Beu3OZZNTlTqYf12H4sxnebSNZXPyhTzcmgO6WpuvxZ8cETWp/T33Xew07KqSiwuwlaBpu6+QtbkO5iGpsdN40CmD6W5J1CYq4jgLInyMjYGtvbjWRI+RCvRCfoffvhh5cqVGNw3WEDF1nWxIJ/PTEdToG/x+FCEAAWhoqtLJcVcalLrWXt9R+jYqcD4t6qKiaDbqHD1dd9lKUDI9zzaPqU/qv0xebmtFxT09RZFajkmUnUVl5KoCXA0XF8ZcXpeteYqIk2S2KR4qQY2/PtcHNT+NmzY8Nprr+Gw14eosIOB/Xccx0SEqTy1MPTi1gg/oOoSBRIN/FU1Pi1VzIX1jH016eGSL6xl2P7BxkSqDocBu6sP650i0Kf0t2YNLHnJytRE2LlJqacvlzgY0qxpcPhzUjzacVABHIjSQvftg6oFI9/oCDjAjhKNb9qWSX8rVqxA4vMtHhcVO3kQXMyIUCgNDWxSgsqyeIZY30qLQXb0H7GokEv2fb6rbwvSC6n3Jf2tXbuW6DqTnaUKgkE9vVDi7pLAYTiMztIPaYqCAu1bU+8uqcB+RxM43PJTXSXkwKnxPuhrZhb9RX+QDVrZqsPhCIOpyb41lpkF9OHFpHIxN4dPTjSmlWjpfIjNj0HMjMkN9Ux0JJ5wgTN7fkxlEETVl/T33ffrCCFsXm7rvEdfmycMudF1lWHY+BilxY5LWAdiTSOzaJomFdEbcPD8Yl8R9hf9Gf0c/ccRsr/V7uFrxvqqalBU4K8kcWkH5dJSeO83a0Wh9nVdFXiY8a+CsxD7w6i8ryqrs3T7kv6+X7+eOBwsPeWlh7pJZ8XzwR0aJj0biok8IFfBSpEBKjcG0SiKkEun/+hvbwEx1V6JnqC5fv16tP1h4/dZcUM9lD+UJhYUYD69zVh/8G+MfBsbmIRYsGP2m51CWDsIrJCdxR9KBTH2fqtPfwA5oHnoS/pbt/Fnkp/Llpb24SYhN+A6F2cImYeAOKi9bCAyoDGuVFXeecKVm8J64GRqkYSQjRs3vv766xjIZEYP4mjjxeBlXZcbGhwR9G6DATj7YbK2BLPqkSDDWIr+ocaa/ZNcXs7Gx+Bpj2ae29THEP7Rl/S39ttvSV4OX1vTHwzGpgyY60WUlhYmLkYz780yfQyQF5P+4Pg55+Nt3k2Oa25ubmhoWLVq1YsvvthAH4WuIjQ9eBWzkR1Vcezfo/VgNaJXifrXM6p+cIJsSYmYaxyh6N8kehgbLiNTOY5LTZZqauioxloA2AbUvqS/Va+vJNVVIsv2rwEmbZqg7uGp5U29fWp5m/rx+QctBVh/WBaO0vF1La6p9q5evfpE+kyePPnMM8+cO3dudbXvK2kMatY0LjUJrqalukpfzvp7jzMyuCbLYnGR3NDQ36bIDEgp0GBkcI4AfOuuvIenkxCQLfika6oCJzHquqrIsmKebeGFDBhRQUxwGiSN1dvS9SX9ffn4Y4RxyD1YjdEJxn5wxtW5XEoiHkDdvwjag/KZ9gSxqFCqgTvEvZUMTATOsKPa2d69e4fRZ/jw4TabbcmSJRzHmSMsD3LUxovJqrAeOz7WsEz1j2Fjm4x2/gPxVDlWKCpsHfl27r8PvoAtEs52FAvyuZSk3jLjOGlJ1/BQWZQ95DWD3fxW0S5s6Tyeyau4+5T+nnycqNC2erIgIxBSBa2aoijV17MJsa0T04FILEBxOlFlIg/Avdc9WPWCi5yrq6uvvPLKww47bNSoUTabLSICTuiB+8y9EjdnYZE3oe9nGEfwPrheeUAdMAFNnBZcYRmxsABUv/43sUC7QDhGW2lq4lKTFbvd517QWW89/pfCpmtEtecf+HlfkaZWhf/w3sdbU+shn97drQeLzYmuczkhfwZHFcHEE33a3rbQTYb7kv5g8EtIoLU/FFN6frNq2mu6QYXqStAgVdURtFfl4H5sU2HpNix6wHQ1TTM5wjem8DA505tRXk2TFUUVRce+PZhz31JHkUIG/PTTT20222GHHTZ37txKumPX7LcwcpU+HrYxiJkQTZa5pETJOY72KpPoGfVTQ8XwiYtN6Dx8wXQ1TVMURWEYIT8PyuJrT+BhoiaqCLJZ9q6Cg9DSClQU2PZTCndYB1aMUVwoHELdoV+/+mJDeIkkqyod5oIzZohw8V8tPu7k59NVJefH/9x819tBZYqmSCwvyIpMbzcQ6EUGxhjGqFz4R1NkSaCPKEqipBJij19+1YkXPrW7XoW5J8qgnktBX9LfN59+Kooiw7KCIIiBf1BQPE9H4HlRFJsiDjBFhSLWiff5RDH1PFE/+oT91CXFjbHRPYeXYRhBEH7//ffx48fbbLZPPvlEFEWe59vF7BXCEJbKsT03uzkuGhCmgHuLAFKzt6F66B8LDnc3NTY6cnJ8zrwP2fAWZIHjRFFsSU5oSUsVRJM7vEsZQVYUxQxm0nEH/gUOAkf1z8WjbLPfprdVCTJe5kJPxiFa4YZ/nHz+w2Fg9O/q0Y0BLTYiOC4SYzHDqJKsEMJHPnP5JTe/F81QkyIdt7kMik3P7l76kv5+2brVXZYC5ZaVlVVDrWDeJaAqpMTlwjHvApOWlpakJLx128uQPfa+LzhYjoVjDvz43HfffePHjy8pgdugOj7Z2dlpaWkd3bt3SYeFab49uq7v3r3bt7A9DBW0fz+hO6l7GI9XwQsLC4uLi70KYnguK/UlFA2jqmpKSoprcFwG7yQm5xen9ifW73/50tlTjxp39MxLH35rT5kGUxxgKNGJTlr2P3f2uFNeOqgRTW9J3bD0H7e8HtIkV2xfftf9Kzdt+/yRvy1YcMWiu9/aXki3wqpUlwO9ESi1Kuzbp65aOH/+wmv+9fr2PI4QWVWJlvLW/009+b5fy0UYtoGC6cxPd/8GnP4QIIQFIfv1119tNtvIkSNPO+20BQsWzJ8/f0Hgn/nz559yyilnnnmmtynOv+yyeeed53MGzznnnBkzZvgc3OeA8+bNO3bKlItOO22h/+C98sorZ8yYMXLkyDlz5rTLGFbizJkzTzrpJG8RXjB37txzz1ngaz4vuuiiSZMmtctPL/ycN2/elGOPveTccxbMndsLyZmozpo1CxuOd4nOnTf3gvPnX3aZd6Gcvi+88MITTzzx0ksvRYdrr73WvfaH7VzTVb40ctWzcyZNmHXbB8EJxXZZxS3nYJhjdt85acRxTwZJukZI/Z9Pn2CzzVldwR169RybzXbEX//9wfptmz+/63jblKvfiBLhdhhFg9ldXSdM+OuLTp69aNm6X7auX7541uw5j/5Ex/NEiV151tgTbl+fo8Bw2XlJQnfcRwgJOP255gGPzNy+fbvNZhs9erTNeiwELAQGJgJXXnmlruuo0Li2cZhjwzEqu+eOEybP+zAPiFKEwS9OKOppb80eccyiNYX0QujGkFcuHj76ug1VQs6Hl0+wnfrE76iiVnx1zfgRZy4HhVORFLD4EUJy3jhr1OR/G5p+/ve3TB4556N0iJhUbF584oTTl+5zwEmWmg7E6tFj0d/AlD4r1xYCfYrApEmTCCF4CmQr0zi1P1gNXrzppuOPmbMiTtU0RVLoagpYdK0EP3nM2DNfCmPoCLUxaNn5thGL1ldLuW9dbJty394GujtPqdn5yBljznghFpQ5mDtRJF0nJV9fPXXkmNNuW/nVj+EVmio01zcxkiLB2p74F84/5vi7NtaqOGvp6fA34PSHk4OaprEsK9KDrTZt2oSD3zFjxkycOHHChAnm34nOx9XR9R2/T6CPGQo9OIPCv65BzPexY8eOGzcOv5qO7Tx3+nXsWDPpdkFco3L9hO7jxo0bM2YMvrt+dfvezrHrn67ptosfA44ZOcIEytvMt0vaNR7XdE1vGP/YsWM71qnbvLULCBU2bpxRbe6qz/Rv5sSMdvz48aNGjeqsgOjuGtx87yyI2wK6OprvY0aOHD9+fLssmV+9jd81IL6bWXX9hGLs1kM7/+1+Tpg4ccK4cRPGjzfdzRfX+M2Yza8TJ04cP368qxhPmzat8z0/oOTBio6yLTcff8yclQk6ISreQE+VMjnoiaPHnv1KJCzGIqQpGOmvRsp98yLbtH/vqYZRrq5Wb3vojDGzX4KzuhQZuBMjbUrZ+N6dZ0w44ogjxo8Zd+rNHxxoBg2U6CT5tUvG2i57Px9ipRzcSsldvQWc/kzbn91uR/rbuHEj9ltr6Hl/6Ih/sfMwlWpUrQV67Cj2MxgbriYBiOkJ7OjBTMhcCYFfeXqmJsdxGzduDAoKwtVqOJPl6sHsx0RRRMo2vtLUHWHBhGWM1bl0vZuZOsaPnjFyXGSHLpGRkatWrTIjN2fQ2gVHswCuznFdo8fRJXsYCiRBUcwkXDOP7vgJBYWvrfnynjuZujqJBkERwCAYG2YJM+82/nYeXJNw7fYxLP7dsmUL1ilmG+vFXByDaZlhzRqHvKmqIzFeKy3FPVmuImEGx/zAGgpqBEc/hJC8vLylS5e6FtA1OEqUmSgi4Jq0a2yuXzE5XPDULrghUS329Q/cU1lSoqqaRPt11+D4blYlxoZ/ERb0YNY4rKGhNYVf26HtGvOmTZt27dqFUZnCYPpH5M3U0R1/qoRIsVGOogJKKXC7rClR6AH/CvT0OfyK51wQQvLz87/99tsmugMKP3X+F8e4RCnbcssJk+a8Hq+qVPsjuqZT7S/oyaPHzH4htJ32J+a8dfFhx92/uxoknKjVvz54+pjZL8XBu6zQ2QxdY6pKqhg6rtUaYlY/Om/CkRc8vw/uXdC12KXnHTP9np9N7a/z7LX5EnD6c00NKwNtfzabbe3atXAckyThWiRzeRqKrKtju08mS6J0mn/dumv0EUVx/fr1QUFBuFzLDILS31n82Ko1TeOzMoWcbDxAtF32UMRdk8Z3bKixsbFffPGFa1k8DI7eOovcjLCjB9xCa09Lfev+e2qqqsySuuawi+CeZM8MbsYpy7KmaRs2bFizZk1ndYr9MoY1A2Lt6Lou5ueyCbEwb6fSJdCmD3cvZgY0TcvLy3v22WfNdZ2u8bu+m9G4dTRR6uyrqwfMM1dZsfbf95Y61z9iQE+CmzkxX8xQ5ov5yXxBudU0bevWrb/++isuJu3o36n8mOGMF/TP5+bwGRl0q4GxAND0h1F1jBC1vKysrG+++aaystLMhhnQtYHTd12HCxOJXLLxhknHXP4B2P6IKMNdUHQzgZ794Xmjjr56dUGr7W/M4g01Uu47c0bOeOjPGtoDajXbHz17/F+WJSD9qTDCJdK+28ePvvg10AihmAffn3fiWY/taQS9p3TjtTMmzn5xv2n783DuN+D056qUYfeCM79If9ivmlAG4gVrVBTFH3/8MSQkxNzF5XlaUJd1dSyeTUJXt3oSFqkzLi7u66+/7ky2PInHWz94m4cjPHT5Iw/X1NWb7dbbeLzyjzX7008/fUfvb0GtwcMYEBy5tpZNStBE44IBT8Ji15Wfn7906VKT/jwJ2BM/Zn9jT4r/9Jkny53015M4PQyL2sO2bdt27NjRGf11FhWCrHIsExmBpwujS2f+TXekv+zs7G+//dazXd7QO+iEKPV/Ljlt2NhLHv8lPNcug85O60snJPqpE4ZNWbJXpDO/e56cbrNduqpSzPzvDNvwm3ZUovZX9fOtR9qOeRzWbSmSrOHMr5j8yc2nzr788Y+/W7PmnfsuPePcGz9O4YiuETH6tdljT7zrpzxz5hcpstu/Aac/1xy00/6wqWDLcfXm33fkX1EU16xZs2fPHlPh9zAVlBJNEBxhwRo98w5q0QPTKtJfZGTkBx98YPYBHibqmzeT6WSHwx4d8fgD91dW+77b16s8YCWuXbv2iy++MIeKnsSAeSY6gas4U5PkygpoeJ5d+YKo5uTkPPzwwzgMRBdP0vXZD+SO1n79nt9fePyJ0rIyVLh8jtDzgNh8fvrpp02bNqF0eV5eQzYIYQ6EKN6c4oGJpqenf/LJJ5X0olRMuvNsU+aEz47cfe/df+dNz34aTE9bda7705tDXrxg/IylySpRdUfGr289vOTzGLtS/ce7j7zwQ7odB7ctyetXPP7ar7DgFnZE0uzDJqH6uJ9evun6xYsX33DPCz+l2hWYZyZqworLj5v10K4qqd+t+3OFqU/oD3UERVFiY2Ozs+Fgou7qrzXL2AfSKlC4tDSxBJYZwbrKVi+dvmG6hYWFoaGh+I5/Ow3gjw9wdxrd4s4cOrh927aWFtjm2QvpIqRxcXGRkZHedjBUtgFRPiONTz9kqlfd4oHlqq2t/eWXXzBUwEsKlQ+1rzocTcH7du7cieawgKdLsUCQk5KSUlJSMEWv0sUNZ3xmhkgPQPNQMDDR6urqAwcOtLS0eBiKdgkuFejkadz1oZduvvX0c+/d53Dx4clrh10fGt31wYQsWXjp7Z8ksANr10dvan+u6DrrwtWt03dzjADHRsZEggHDswPNXVPBd1eXTtPz+QOlamwPXGKscU8T1VMCmy7NcA+TwAE73BWZkqgrMnYx3cbZzoPZV/kMYbcBjT2oui7m5Qq0K8Ug7XLSbTy+eXBNBd9dXbqOEyClwqA0N8HtHx6f1dgxiY4ubZOm9UD5T1Vgj50kU1sgVo+x51dIWfPPGTOWRDBEETmWl2BVtCIJYCKkqoWuq7IE235RtTarts2eX1EQVUJaol688qRLntvXpA2wPb+9Q39YNwhgdzXXth7pL9oU6X1pzY2OAyF4Dr5ZHW4CtHXy3GfbcF7/gpEBTUyTRDY+Vq6rc1pbvI7K5wBmYb3CGULR0a7CMFxKgtJIz87zeOWqUUE+Z9qrgFT7IzCEDJUawK7qVUm9Sqozzz4nigF1TXPs/1Ojh5V5HpURFrmps5x54g4R0aXJbGnSH+EFeMOjb9FSqdF1vjA2MialHPaH0GfAnPjSO/SHAmpg4/yHLg7ypLrAjzHQUBQu/ZBYRM0RHhinnEm1/9fTVL3152yZcLhb2kHUp0zV1SuZ8DZl0/jVtqgQjYfsAMRN9QL+YIqQlwsBUU3osmG41qypJfiQeQ+DQOlorpSWZjYq3DQEm6X2MB6fvbmW13z3KjaUZBz/moLddQxm6VxfKNV0Hc79V8Nq5FKtLq/ug3Tp6mKFclqkvIqwN6c+4OBMQsj27bDnF2d+cYkfRbbLYvbwoxMSowqN2Fyw6zz+1lqnN0ay0REwAvKycZqReM4InefIzReIH7OkaXxyglQCW+KRATHpAKXrmhVokMbAhaYJ3zxCGPOGLVOuq+VSklTOgwtznYlgAVv/YnTOGnfNYc/fDdtCfIxUXoYpGh0MjRopqeepuI3BKG5rOc03T9f5opoMfyXJEfQnntBFa62rajJ51kzPWUxwcJvVrhydgcCGZJzR7HTqKpi7b0Y4MEbBgVrgxeuoeo/+dB1X7ermwpf/rfueEN25gNN7KN1h0tHNhMR8oUB19NiVC8g9nM3pYBLj5KZGeq5EV/sKW4WmTazOGvNBbtrE4+YHtkylsYFLTlAd9g6iGSh4nVkx4m+frsclBWgogzPREUo1TBWCS+fBOy1Ppx+cOfXpX8wM5FBVHWHBCsO4Zs713afoexTI8xKbeDIxkXJdLYpxF8EN/x2KR9HoUZ77SeDeoz9C6AZpnWzfsRO1v09Xr9VgTwuYup2qQ2BggZaFbKXzjbU8rKzEGTyPkjO7TV3X+cwMAa9N6P54S0NqSvOzEhJT80vgZgxqgO5C3jzKT0dPkBItoFiYz6cmYgJcfVnawZT0nGLaMxqZ6RjWLy5IU4ip3FxfVdsoUau1h2cPQeboyj2Y/01NFvLoAaKGaydw0a+gYOoq01RTUlRcXFJS19gM3ZTxyS8la40EFT2puppLSdQksFoRXczNTC+uqHcOJDvJamscvr8ZZdKkysryEvqUVdQ0NdVJULvw0cOoERyxIN+4/bK7VVw67NaAyBtqy9JSkzMLSumuNIzG00Q9zFvve+s1+gO8YAkl0X/Z8gPs+T3ssImz//5bGmxyASO9x/XnLUZYUbDpuLEm+Pv3/3PLVQfhWDBJaX92YlcRIwPC8vWiQjYxDuLEPHeSbad/LWv/10dNnnrCCdOnTT9xXVAZIbrSPW92lZOO34y06D9cWgqfna7rOlsUdd+5s4+dNu3YY4/em0THwh7YKztG7okLtj3Y7CFqRGn5YvE5l936djnsqsKVrp7EAX6wi5JqatjkRFya20WrBkWM8jpbFvPAGbbJ006eeuzke//7QQuwgaL6u7CALj3Onk9OFAvyqQFE/H7lbUceM/mihf/OaJR0BfZmeVpU7/3Rlb+EMKkL5px17LHHTjv+uGOOsI2edE4OS3QNVhV7EiWKCnQ0jMMRtJdiqHWxypJ2STD9as8J+r9LZ0857rijJ4z4YHM0ba2mSuFJyv3UT2/RHxxDQ6tIc6x69RbQ/kaO+vdk20P/+SoLFjrSM7oCAxGqjIUkWQAAIABJREFUJERXE379+MSJE+dceWMF3UljmAs8ThSbotzUyCUnqgzs/wXp6SQ47A2SdULqrhk35X9hcIZP5PbVZ57ziKYTlW7y6yScj85I8WCST0oQa0EZ+eOOqx9esYVGl7fy4x8B4QBdRoEdAKxbEAlRk3a+OX247er/fNsEZl46mvWsTFgEaJ+yzESG49JcVLjcRgCnGlEFM/XA77dc+ZbpB9bIogJoOvnjBXJC/2MiwnDYWBr/3dFnw7F38dF7398DMgUXlvkjLbdxAD70+BNNlUGLIMKXj0xb/FQYkD2cpudpygbOisLGRcsNjVBJ1MltorRLg5WkH9w0b/l/vwQ/xd8ecc679SwQoOeJuo28Pzj2Fv3R9XKAsyP/zXun22yH2Wy2H9688rZn1wWnNsMZXarHKx28hA3FRlNknm/O2LX+rcXXZGpwx4RX9Gd2m3A3RUqSVFJsqAOdiB3oCjAMa/jyv1sqmqGZhm14cc65z6lw+gVsj/WyEF15x7xB8ysrY+KigXI0LS8hMq+sIjXk9y8+fPXbtWGmbtVVRD59w6GXqoBB4VD4N3+76/Fn7rn68ZUf5bdAs0Iu8jxiTQXW5OJjxJISbKiAlTuQodTgQwvd8e3w6Xd//v5Hy17+ICazDrolXJjpKSF0nzuaDlSZ3EA7Pxa268f+7/6L737l/XffWPfzTmrW8IKDuk/SrQ/AGhbta7pWHPLe2WctdsD1QN5dEISyp2uamJfLZ2SYRXOfoK7DWVVE3/vZ4w/fceNnn3760Uu3X/HAdlakx/e5qxe38fRbx96iPzjuAQRIKIt75CKbzQa3he349rGr/7lx54EqYyo1YCBRMoLUa+N2ffTAdWkwLvOO/qh8G9q+kJXJpSaj3HQxcKCFokWSSlb8594rrl7w6ndZOmiF/mwnyH2YGSE7C3ZNwApSpFf253eWnj3r+Le+CQkc/dF+DdiPLTj01I3XbcooIgdefWj517iiHw7e9bhajaao61JpCZeWotHjfMDRXQzgDh+0zAOr/nbNdU888NJd86YveuA/BQ0qzHl7k6676Nu74TQ6n5EuZEMlEkKStjxrs8286aZ/XHHNovUxlUSD0a/brLaPy6fftLzU5KLpClv2r/NnfBhrB0sKnCXghSKG8cDOnIYGJiwYlot2rqNDBwa3aZCDPz9x4akT5v3thvNOPfK6l3YK4GZUgE+l6S+Beo3+gIKIrss1qc9fOcpmG2az2bZ9/a87X9qyL6lRhz4tkNofnJYNC8sron59955F6QpMw3il/WF1gdzrOmzOx8UZXQ0coLy6Thy5O66/5qa5i+9fFwJDYDpe9nMbQRpQOQ72zNbX0X5ZzEjNrmu2C6JYV5m1/N23Kf3RszT8LXhwRAuofnrs1y/Osh1+49NP/u3UScefdPayTdE8qmfu6ct9PnCMqYmiIyzYvGCvM+2PGuA0BZb+45N02+2Pf7C5UodxqA/V64ymw7/Q0ClHsHHRUqlxY0bE9w9e+lgMIeSXzUEL7v5TJ0QUjG6nQwT+caBUBVCXR7997JWvy07x66SD6DRR5DuV55noCJVOYXc2/tU0FY5aIY0P3bzkmTd+h4mp6qDTJ91U2ggzP96m22mG+u5Db9GfaQbX6r95+Upq+xv52CnDnl6xKscONQpVEjgUaK9JCKmK3fnhA9dnQN/lNf05R1swg8MmxuHm/M6GsaCBqRrRau6+5sRH395llgyHin4sKWp/QMp1tWzkAV1RZEkhRH77+qtXb4HrwwlxrHz1rcDZ/pzMQKqLMtd++dk7b7/9+nO3nH3NTR/+ni7CXTbGvKGJQNcvEBu1UTKRB6Ra47wGtyo2bXu6Ljfs+vax1zfTudecDYv/+egPMXB/GNSun1A2ECZEaW5mk+KVlhaq9+hpv786aSGYwzZtXH/Lm4kwLSZ5M5vWNRBuv1Kp0nWy9a5zV+zMRFukt6U0tT84xi07S8jNhuJ0Yo1B+tP1mkVXX/vil3tppipmTV1c3MBatj+3VdSJI0UdJj2JtuWnVTabbcSwYeOPX/hLdJEM9gvofjoJ6Q9netkuIaQyfNMb/7wsBQa/3s38YibMlsCnpQrZWcYAwF3O4Q5Yjej2aJvNdtq5551/zuyZM0+75eGvFRhNODc29rxklNZRoMXCQi4ZGqEiwZqTvJ1fzDx51rkXXHDu7BPX/wHHpnXG1P7IRdu6y/xsyedbqunKEB8Goahnwd6V9EPYLN0yGVVhCNGEpF9f+svUEy688MJZs8555qudLRrR4HSltlnqWSFx5CvkZPPpBzF7QHaOsv/c8/czzz5r0T3PZTUIcOmvf1PtkGewnMD22cqrD58dklNnSKM78esQtI0Dan+gI1dWMFEHQDY6WY0AfEtV+7hf3jrvzBMuuPDCs0855q7lW6iaa838tkG12x/OdX87f4Pbsm22Vz9bA5OFlA6oVbfbGHz1QBkClAK2ubakgIemAU4+RIdr5eXyMu5gCi7+QmFqFxVSElHY7Kz0A6EhwcHBoaGhSWklOF7zLel2SUAZnAMQTZK4gylSRTntycE0DhMRiRHbtmzZ+UcwH0hLjVkWXdNk+ggt1ZW19TwlefjqDc7QpCl2miQxQft0Y02om5pChGncWnFq8C9bfvkzPLWRh4EEJupNsh2hNVyMVKhyxKUkivlweKdZ41Jz4e7fdiZlwplXGtg63OSz06i9/0AzA/bznKwinp4jAC4+xYMTSkpLCxMTqbIsMqm7yAwACNGzU6K3bdm8Y0+oQwTjUYBWsHpfmh6F6L3Bb8ddHz/+4LLrw5d67FHJfQhs9LeEaJLExscoDQ0wZ93JwMGH+L0OgtofIardzoTCQdat9NG+WbT/7XVanQfAZmP8bfVmpOhtwibITHio3Ahn+eLTGnHrG3xp/UXf3KqK7fx49ROZQmUcbHKC3NiA2WuXJQCeRto+N16l5JFn/6SAQqspCp9+SCyE4+/dijGWCorcNm/tit/240D61Xv0BwuUOtnzC31JQEGj1WWofIaoumk5nmQBgmlgDWZjIqViOP4ARaFdCYwEKT3hySv0LxQT/XuSVtd+aE5QVYKpUjYBLH2mDoKtlK5Uo9qQU0/sOs4efjUY0NDgILJ2sHgYP/K4kJvDZ6Z33jKNuJ0lxbXzIEf+QhijQl6Qykq55AQcJDoL5UzZ5beHBfTNmyFUaCinLcaZsnfxIT4YVioqZOPgTGVzUN82LvBr4uAqTujY1vPA+9Wb9Gfc1NN61wc9GF2WYX3wAHqwPYhFhVz6QU0xNjf0Sf5R59AUBZYiluMQDPrpVpl1thjPTx/ok4K4Jmo2TtXhcITuN8jMff/YrqBGQ3WNrSfvSG+YHz79kJBBuZguKjRJAb8ORC5AMVbq69n4GBXuGKDTj+5wbldY2loN5HsCb38I25f01zsHXvkXZdN4pwoibM63wzygaQzyb1pdx2Y2TpXn7UF7NaeZDIW167AD4iuskQ8LVuz2vkLYIDVdV3kOOpga2LXtdpA4IPBsl0nDVCLL/MEUOCLIOefeztvg/mnRn/f16xQUJipcrijH8Sy0Cnc9p/exexrC5FypuoqNgfHLoGmZhkql6zD+zc4yNSxPofGTP+xgYDK9upKLjzE6mF6vaD+Vpn00ZumEnCw+LQWmqAK9AKN9Fvr+t0V/XtcBLpQndHOCkJmhUYNm7w8GzCEJl5oslcIlJGgI9Lo8/TIAkrvc2MiGh3a9MyFA2TeVa13TYMlLWgp0MJ7dcxCgLPk9WuQ7pbqKS07U6FXFg0mEPIHLoj9PUGrrB7URuiaKiQhT6bnhva/9YS40VYGzyyWxr1SkttD47ZdROkUBhO1wfGHvt0zsYFSeh5FvbQ1YIQO8ss9v8HkQEUIKvaYosCmJcmUl1f/azfF6ENFA9mLRn4+159ycECZTkxA0115cAYPsoOu6VFfHRkUMppEv1gfO6oDmlZfDZ2Yi9fhYVT4Fo/VJ9zjW1TqiwmEFIp2872UTh0959zSQKbT8oVQhI92PyxI8zUFf+7Poz5caQLnRdV0sLODT07vYnOBL7J6FAYLQdS4xXqooN9nQs6ADwJdph5Lr65nQbnbm+788zuksWsX5XFI8jnwHzbSSiZhhZKiq5FLgjEXaj4I0mR4G94tFfz7WL7KPKgiOkP26rCAB+RiX98GQfzW8tYtabQabyDoJSOV5NiZKsbegOtY7xUQ9CLhAFNnkRKW6uvfVT++FwusQxvgXbhJX2PgYuabG0Hm9jmmgBrDoz8eaQwLSCWGjwuW6ul62m6CpUayuYuNj+0T39BE1j4MZ80t0OpvPyjR2WFPzQqAZEFcPIsJqS7M9ZD+ooqgmDTq1yBRj/mCymJtjLBoddMXsTO4s+usMme7dDQ4qLOAP0mnB3mmcVDSR8riEOLG0FOkAMjOYHlSnadnk2ho2PLQ3h5849IYzrIoKuWR6YEQnhwIMAshxOlusrOBSkoz530EmS51XkkV/nWPT5RdsntBbyjJzIFRxOEyXLsP54SM2TtnewkZHaIa9xtjZ5ofY+1MUWFJNFPnUZHNbS8C1P1qRcCECzzORB/BEgEAn2leoG70MXfHHxkTiMW6G4xDQAS3665HgYasQS0v4lCRqNg44DZnWGS4xTqT3+fYa7fYIKe8DA7bUAghH9VRUsDGRWNJAr4BBPRomPQoKjOV+vaLXe4+Q30LAyB6vsU6MU0XRhN1vCfTXiCz6871mTGO8yvNwbzQ98iigjdNMUZcVJjzUnBAYiHtOPcHdtAAqDMMlJ8r1YGMN9AIjU/dhog7Anc7U/jhYtT/T2IcMyIQG4yVTg7VPbSd1Fv21A8S7n9gqdFXlUhKNBSgBtpsYlprCAu5QGt6GgUZ57/I9UHybVEQI3LORfijQZGQmqDAszOnTUeEg5j5TEKBT0XX+YLJQUGBMpg2BPXAW/ZkC4MuLMR9IiFhZwURHBto8D42TjlPY+BjYpu7Xw518KX+vhMEpJrmslEtKwANQA6piY3J8draQnYnqdq+Usi8TgWJS4lda7ExkuCZJ6NKXeeqVtC366xHMRvPAe6MPhGoibD4LUOM00iJEZVk2LkZuaR4KNhqzHaqiyCYlKNVVAS21qf05DoQoLbDYEJ8eSclACIzSpRPChAYZ83iW9uffinMed7odrjqy2QbigVcdATEs5aoKo7O8HNDOAjD+xfFX66UTGemaCmutB/PI14k1EBDVeWFvVlamuTfL72NSpFpd15XmZibywNAZ+SLSWF4hOwuP9gpoN+Os2z7+19L+elQBTuUAlsrKlZUMLk8LjMHIVEPY+FipBA6aHgrch9VjjH9ratjEeJXnsOw9qrkOgY0OhnZdbHysWFRomsA6+B2EDkj9sNyH48TCAhA2Xw/rHkDoWPTnh8rCxqkrCp+WJubl0PlKOBDfX+oJEh+qmWJeLk+vADd24Psh+/09CqOPoWq1kJHueseAf7OO6o9cVckmxeMCYLPL8W9C/TM2s7B8Nr1F08B9MO//teivp6LoFBKQEqm6iomO0BT/bwFGRQ+2oCbGS+Xl5hyLvxi2pygEPjyyv9zQIBYU+H3KGyvROMUnIlSuqsTeCxMNfOH6SwooZmJBgcow0HsP9pXPFv35R/JQblRBYFOSZLx2w0/bpAx6pYMyubycTYg1xtYBsDD6B4sAxGKCoOu6UFQYiD02WIMw9UnvfkTLF6YbgAL1xygNkHVdqq3FTdaISX/Mq5/yZNGfH4A0Gyfcfp2bzacmg+7gv4kzUy75jDQhE9a+QeT+G1z7AYJeiMJ5x4BYWKA4HH40fbpWH5+WJuRku7r0Qsn6TxJYcE0U4QxdU+wGrw5o0Z/fZA8HSkpzk5iX68et4zi9CzdOtLSw8bGKgx59PJRUP6whoHvoUYhUXCg3NRkN1U99DKg5mqapKhMdIdfWGFMrNA2/ycdAiMg8ZZZNiBUrKwb95K9Ff/6RytaeUtOksjK8Dxsde5IAch/Eo2licREbHzMErX4GgHSVDxwxYbcLuTmaJEHj9IdiAuiqMFUlFhZyB1M0STZg70nNDcyw5pBFqql2hIc5uxwQwIFZoG5ybdFfNwB59VnTVKLrcmWlVOu3kyNBqYS7FnkmLkpuqB/0HXIXgNPuBPQ9JiIMrhh1Whh60jiB6ZDtFJVLiJPp1fWGzWuQtvkuEDalSxNFJuKAYrcP7gUGFv11JQxefUMdTaf0hwMo2lx97zldg0vV1UxkOO2NDWev8jZoPKOFgUtJEgvycZtqzydnMQappppLCtSiwoGCv3mpHlwjU1TMuYw2BtMlJ2Z1WPRnQuGHFxyLqYxDKMjTOM7sS32OGlsmPVIhSSqmd1EPPaufiZ6hqem6ynGOkCC8364ns5NGT0INiEL6QSEzY9AP90ww3b9QRFDqVIeDjQxXGQYVwEE5+rXoz70Y+OYKphOYk9W5hFippMScnfRtdGZqf0pLsyMsGJYT0obqW2y+lai/hcJxKiGEjYuB4w5dmqtvWYWmrutKSzMbF6O0tPS8x/ItG/0qFGKiaxqfnYXLGPCcocEneBb9+VXwWo3o+VxasnFyhq/6mqH66TqXdtBch+XX7A7IyFDdUxmGoQdS4fpkH1qm2bvApEd2Fn8wBVysDgZxoUIr19cxsZGqwKPbgBSXLjNt0V+X8Hj50Wk60XRVZSLC5NpaVwXQ8yZqtkzYfm+3O4L365bqR+vCaJt0UgJ25paUmPqa5/Ca+xnMUR4TG6U0NBjrXbys9EHpvVUBTEsVMjN8E+P+j4xFf36tI9o6Yf4XVlEUcCmJmmysovAhGWycXFK8mJ9ntMwhOBfpDjjU0ZSmJkfQXrDW0QfVQHfe27uhGcsMJeTlcolx8HPIq36IFCKD3YlcV8vERSsMY5683R7Ngfzboj//157uvBbRERYk14EC6G27Mlum4nA4gvfhOVfg6P/MDrwY0fyHbMUmJ4pFhaZu4mlhKL7Yuyh2OOBTsdst1a8dergUnBA4AprPgpNfvRXjdhH2w58W/fm5UpCjkKoUh4OJCFNb6Ao1p/R0mx5tm1TYFIWLi1YaXQZlFgFS+AwGpKczsTGREt2n4XnjRJ/Ad/QIVamsFLsoc1DcbR0Neg+uYqzyPJecAJfAUe0Yu43BgYBFfwGoR0pSeFocrNeLCENLikdbFGhY9C+VFCvV1ebgzlL9XKsKGRD2AtrtjtAglWs9BLBbLRkbsK7rXGoyn0ENW3TXh2v81jsigGCqoqBUV5uHgA0acCz6C0hVgtAYm7QI3EiZm+PhENggO9oa+axMuMbXGU9AMjowI23VTaiqLOTlsgnUeOfBKTumcq0yDMwpOe19WGUDE49A5drE2UwAXcyfA/3For9A1SCYimlTU0XBHrRXbmqC0Rbltc5kCFsg+pHr64ScbL8fbBeo0vZ6vIghqskqzzFR4TiGxWUxXSFMT8kmui7m50m11ciGvZ79AZMgImn2GZ7PLw2IElr0F7Bqchr7dELk8nJYtyxJsH4Fh8YdrHiGOx49IghMWDBeuWC1z85qyGiTuEKtro6NjlQdDkC9kz7GRF5XVZ0Q7uBBsCd0Uh2dJWq5DyYELPoLZG3ScSu0UkL4gwfZ+Dhobs4BGrZGTL6V+xRFUzVHRBiflkp9BuTipECWubfjBngpA4oF+UxMJAxm6X+GnuLsZkzuQ4UaNo0UF5kj397OtJVe/0DAor8A1gMa8nABgS7L9u1bmj9/rx0DmsodNEVF1glpXvtl8+rPdUkyDtugPgKYy4EcdWu3oSq6oth372r+eQMSou6czWhFWNeR+7iEWPvu3+DILBwID2QErLz3BAGL/nqCXndhnQMrnGpUmpuav/+GjYXb0LGJwsjLOUkChkJCmN93NL3xslZTrRMYxIG37hIZ4t8BIdSyNU1taW5cu7rxm890RQGQUQ2kHqAvoY6OjT80fPKe6mCMWrAAHsICZNFfYCvfUE/QDggjX42NDGfCw1D1MOZ5MQssy777evKTD5bk58N9g877klB5sf52gwAlOwBSVe1rv2n8+lOprg5xBZDpm6aojr17mn9ch5sRceSLfqy/QxMBi/4CXu8mA8IomNr+hJzslj9+45MTtMYGwrJKXW1NaPCqJ5ecPXXKUYeP277rd2tQ5m2tYG+RkZ7+zerVhfn5akE+u3e3mJSgVFbIjU1yVRWXkuj4czefmqyJMOY1uc9Sr72FejD5t+ivN2rTZEAczOq4XSE7u3L3rh0fvHfL//3f+HHjRo0YYbPZbMOGf//dd3a7vaGhwe7Xx+Fw8Dwvy7IkSXKAH4ma1XoD2bZpREdHT58+feSoUZfNn//L5s3N6Ye4xHg1OYGLiRSyM+HyRqoJoiKJg9+2EVi/hhYCFv31Un2bWgYdB2uEkKrq6n/ceOOw4cOB9egzfNiwEcOHz50794EHHrj99tvv9N9zB32ee+65Dz/88J133nkvkM+777779ttvf//99zt27Ni5cyf+3RmwZwd9QkJC0tLS1q5dO3nyZAPMESOOOvroRx97LCExURBFcwhscV8vSfxASMaiv96rJdN6ZeodmqatX79+wYIFM2fONCjQZvvss8+qq6tzcnIK/fQUFBQUFRVlZ2fv2bNn48aNmzdv3hTI5+eff962bduyZcueeOKJpwP8PPXUU88888ySJUvmzZs3c+bM6dOnjx49egTq0RTQqVOnzps3Ly8vT9d1FaeSnPNRvVfxVkr9FQGL/vqgZsyxsOpcnJGRkbF06dL58+dPnz59y5Yt1IIPp2ZZj1cIpKamHnHEETab7bjjjrv88suXLVtWQs/cNvsbr2KzPA96BPqA/nbu3DmaPuvWrSOEyLI86FHuWECTARVFEUXR9LBnz56cnBw45VRRNH8/ai8+iqIE2MDYJnqe50VRjIqKuv322x988MH9+/ebkEqSZJ5xYDpaLxYChJBepT9kuo0bN+JA7/PPPyeE9JWZvD9Uv2kQVFVVkiRTGewPeRtYeUAkGYbheR5zrigKEp/Z0wysElm57QUEepX+sBMuLCz8mj5ZWVnWKA/HZdhE6cpcUPqswVpPRF+SJMW5t9pCsidIDvqwvUp/gx5Nq4B9hYCp4uGJLxbr9VVFDKx0e5X+TB1Hog+O9dBxYKE2cHKLCw2d12GYc8/GC5TD6aN9mUxCoX6NGNp6MoIakbXOqJoOHV6M9KyNfG2BtH71EQK9Sn99VEYrWfcIGOxFKcm9D59cLW7zCTYrUB8gYNFfH4Dei0k6KQ5OwVNkkefw4UVjWQ0cF0APDIBZZsOz6QC/FZFlBcXYnGxMRYM7kBz8g04wpQw7+vD0PE0RBUxHkGRFcr6LsmHUtE4Z6EUJsJLqAgGL/roAZxB80nXKSqQhduUVtlGHH3XcscceO3XypCMnnX/PN6ktQHj43VnU9qaI5r0vnPuXJ/5oJm786cBm8DTtuuPESZe8BqcZioymk8qf7vnr9MmTJx87eeLYkcNHT5g8dfLkSVPm3rMmG6a6ZNWiPwM4658+RsCivz6ugAAnr2kqJam6sKfmnzznjTQjufIfb5488rRn/nSAxiZU5yfHx8cfzK2h6w91rr6isKikKCuzpFFQuKaK8jqWxsFV5ybFx8enFzXCoQFE04m9tiQhISkt8Ydbph994SuxQG4SVfGMZMRdj5489voNxlKUABfVit5CwFsELPrzFrGB5d+p3dUfeGbhyZe8Ei0IQkstL5OGH6+dbJv/YbnMZq59ZM7sE2bOPOXEky9/YnVsCyEJK+aNGT5s0ow5r+4prd1yh822aLNDsx/6332XnXHSGWeccdY5Vz2/KRcu72xefsu8U04/9fRzZ08/4ri5r0bBvWuiQo/fU1VFVdWmrQ+dNG7xd42qqkiyijfdOUfOAwtHK7eDEgGL/gZltZqFctJfXdiTC2Yt+KTM+SHn9TNtw2/4oTJrzdWnLvqymDoXfHHN5Td9WihV/u+mycMm3/c7XNDu2P7vyVMf3FNy8IMbTpnxeBAoiw3bbz3jvHvWZdUffP3ORz4lhOR+/bejbMdc8UY01f7ATkjNgoSQlm0Pn3z439c104MOqbszfetfC4F+gIBFf/2gEgKYBSf91Uf9d+GEafPuX/7yyy8vX/bkzRfNOH7hyuCyjM+uGn38omffWPb80v8sf/HeC8+49K5fC4rXLx4z5oYN+ayi6g1bH5g67a7Vwav+dca8D7KIJvAiIVHP/PWKZ9ZvXbZwxbogWVL1xt9uPebIi14F258qWfQXwOq0ovYvAhb9+RfP/hZbK/0tWzh+yv+3d34hTUVxHJ89GP2B/pE6MGpDo7IocloioS5BerEksWkvaeXYNM2QfChTqIQeMoaBSGWFJMRKNHoQ+gMJmVQvucRKyXQz55rO0P3z7t4TZ9t1avqyy9Ar373s7Jzd3/3tc8aHc3d/hymyi7VajVpdVHbt/ptBjnjaS2ThspQz5wo1Gq1WrSkt1b0asHXXZayNPNH0w8ERMqYvkEardK23VTuOPzIzLOPiGK6jIjmprOHxpWRdSxfHse5fT3NkmxOu+n77g/6W23cA+SxKAPpbFM2KGOD1Z3lLL37vmGZ/KJaZ/lR9aPXBWvoPxLMen2vS10dlNfXROxZWfX5UdF7dS13e7mONZuJxOt1kQq86oCzXt1UpK++1u6ZZztqWjdXfLIBoioUA9CeWmQouT15/f96VpcUkVX5wu92OSbvL5XJPMxxHHO/Lt0m2n31hpdEHWiq0F5qGiLE+Y5305JN+J61peVYQIc1v/dZZrdyZeKWTvm3kQao0sbjF9Lf3Zl5RHSGku1a5aVVk+nU6Ou/i97k6dkPmQ/z2F9zk4ahQE4D+Qk14aePzhS+jrwvjt8RV0OtTxlt+TIucCUcYa1fDeUXk1ti4vfuPHFWVNPY7SM8NhSQ8o/E71Z+1OSdMkqmfZG0f7+Yq9sjlcnls/KmaV8O0RmaiKjfnAwRwAAABa0lEQVRFFrPrcFpCRNiafZc7ZoLz/x9paz69UZJaP04Iy/gKcJaWBs4OAnMIQH9zcKy4F/79GcTjHDMPmyeotLxd/vIT791Y1+jPL626i1mZt3rdVFQOm3nIZJnyFvB57GPGIV/dH2cfHewxGAx9pinvlhGOI/bx34avvYOWcYvJOGKjuuTP5yufZu3WYaNlkg30rzjA+EBiJgD9iXn2BOfO24oGYvk9aQtFnb8bhL7G5o2FSKFPRASgPxFNVhCp8n7zrvZ8DvN18QPe9dqM3LwN/r10aci3Ay1/D82FH+Sf/1v9BQZoK4j0cQgIhJIA9BdKuss/tl9LAU/5nLb8E0eGICCcAPQnnCEigAAIiJIA9CfKaUPSIAACwglAf8IZIgIIgIAoCUB/opw2JA0CICCcAPQnnCEigAAIiJIA9CfKaUPSIAACwglAf8IZIgIIgIAoCUB/opw2JA0CICCcAPQnnCEigAAIiJLAP9tIkKFVKsVjAAAAAElFTkSuQmCC;" vertex="1" parent="20">
                    <mxGeometry x="341.6400000000001" y="60" width="286.73" height="140" as="geometry"/>
                </mxCell>
                <mxCell id="25" value="Pipes" style="swimlane;gradientColor=none;startSize=23;fontColor=#000000;fillColor=#DE7A73;strokeColor=#DE7A73;" parent="1" vertex="1">
                    <mxGeometry x="10" y="677" width="710" height="363" as="geometry"/>
                </mxCell>
                <mxCell id="26" value="\[f\propto\frac{1}{\ell}\]" style="rounded=1;whiteSpace=wrap;html=1;shadow=0;labelBackgroundColor=none;strokeColor=none;strokeWidth=3;fontFamily=Helvetica;fontSize=14;align=center;spacing=5;fontStyle=0;arcSize=7;perimeterSpacing=2;fontColor=#000000;fillColor=#f08e81;" parent="25" vertex="1">
                    <mxGeometry x="9" y="30" width="691" height="50" as="geometry"/>
                </mxCell>
                <mxCell id="239" value="Closed Pipes" style="swimlane;gradientColor=none;startSize=23;fontColor=#000000;fillColor=#DE7A73;strokeColor=#DE7A73;" vertex="1" parent="25">
                    <mxGeometry x="10" y="93" width="340" height="260" as="geometry"/>
                </mxCell>
                <mxCell id="240" value="\[f_0=\frac{v}{\lambda_0}=\frac{v}{4\ell}\]\[f_1=\frac{v}{\lambda_1}=\frac{3v}{4\ell}=3f_0\]\[f_n=(2n+1)f_0\]" style="rounded=1;whiteSpace=wrap;html=1;shadow=0;labelBackgroundColor=none;strokeColor=none;strokeWidth=3;fontFamily=Helvetica;fontSize=14;align=center;spacing=5;fontStyle=0;arcSize=7;perimeterSpacing=2;fontColor=#000000;fillColor=#f08e81;" vertex="1" parent="239">
                    <mxGeometry x="9" y="30" width="321" height="160" as="geometry"/>
                </mxCell>
                <mxCell id="241" value="End correction: \(f_0=\frac{v}{\lambda_0}=\frac{v}{4(\ell+c)}\)" style="rounded=1;whiteSpace=wrap;html=1;shadow=0;labelBackgroundColor=none;strokeColor=none;strokeWidth=3;fontFamily=Helvetica;fontSize=14;align=center;spacing=5;fontStyle=0;arcSize=7;perimeterSpacing=2;fontColor=#000000;fillColor=#f08e81;" vertex="1" parent="239">
                    <mxGeometry x="9" y="200" width="321" height="50" as="geometry"/>
                </mxCell>
                <mxCell id="242" value="Open Pipes" style="swimlane;gradientColor=none;startSize=23;fontColor=#000000;fillColor=#DE7A73;strokeColor=#DE7A73;" vertex="1" parent="25">
                    <mxGeometry x="360" y="93" width="340" height="260" as="geometry"/>
                </mxCell>
                <mxCell id="243" value="\[f_0=\frac{v}{\lambda_0}=\frac{v}{2\ell}\]\[f_1=\frac{v}{\lambda_1}=\frac{v}{\ell}=2f_0\]\[f_n=(n+1)f_0\]" style="rounded=1;whiteSpace=wrap;html=1;shadow=0;labelBackgroundColor=none;strokeColor=none;strokeWidth=3;fontFamily=Helvetica;fontSize=14;align=center;spacing=5;fontStyle=0;arcSize=7;perimeterSpacing=2;fontColor=#000000;fillColor=#f08e81;" vertex="1" parent="242">
                    <mxGeometry x="9" y="30" width="321" height="160" as="geometry"/>
                </mxCell>
                <mxCell id="244" value="End correction: \(f_0=\frac{v}{\lambda_0}=\frac{v}{2(\ell+c)}\)" style="rounded=1;whiteSpace=wrap;html=1;shadow=0;labelBackgroundColor=none;strokeColor=none;strokeWidth=3;fontFamily=Helvetica;fontSize=14;align=center;spacing=5;fontStyle=0;arcSize=7;perimeterSpacing=2;fontColor=#000000;fillColor=#f08e81;" vertex="1" parent="242">
                    <mxGeometry x="9" y="200" width="321" height="50" as="geometry"/>
                </mxCell>
                <mxCell id="30" value="Tubes" style="swimlane;gradientColor=none;startSize=23;fontColor=#000000;fillColor=#DE7A73;strokeColor=#DE7A73;" parent="1" vertex="1">
                    <mxGeometry x="50" y="1100" width="710" height="340" as="geometry"/>
                </mxCell>
                <mxCell id="31" value="\[v=\sqrt{\frac{T}{\mu}}\quad \mu=\frac{m}{\ell}\]" style="rounded=1;whiteSpace=wrap;html=1;shadow=0;labelBackgroundColor=none;strokeColor=none;strokeWidth=3;fontFamily=Helvetica;fontSize=14;align=center;spacing=5;fontStyle=0;arcSize=7;perimeterSpacing=2;fontColor=#000000;fillColor=#f08e81;" parent="30" vertex="1">
                    <mxGeometry x="9" y="30" width="691" height="60" as="geometry"/>
                </mxCell>
                <mxCell id="256" value="Plucked at middle" style="swimlane;gradientColor=none;startSize=23;fontColor=#000000;fillColor=#DE7A73;strokeColor=#DE7A73;" vertex="1" parent="30">
                    <mxGeometry x="10" y="100" width="340" height="230" as="geometry"/>
                </mxCell>
                <mxCell id="257" value="\[f_0=\frac{v}{\lambda_0}=\frac{1}{2\ell}\sqrt{\frac{T}{\mu}}\]\[f_1=\frac{v}{\lambda_1}=\frac{3}{2\ell}\sqrt{\frac{T}{\mu}}=3f_0\]\[f_n=(2n+1)f_0\]" style="rounded=1;whiteSpace=wrap;html=1;shadow=0;labelBackgroundColor=none;strokeColor=none;strokeWidth=3;fontFamily=Helvetica;fontSize=14;align=center;spacing=5;fontStyle=0;arcSize=7;perimeterSpacing=2;fontColor=#000000;fillColor=#f08e81;" vertex="1" parent="256">
                    <mxGeometry x="9" y="30" width="321" height="190" as="geometry"/>
                </mxCell>
                <mxCell id="259" value="Plucked at other places" style="swimlane;gradientColor=none;startSize=23;fontColor=#000000;fillColor=#DE7A73;strokeColor=#DE7A73;" vertex="1" parent="30">
                    <mxGeometry x="360" y="100" width="340" height="230" as="geometry"/>
                </mxCell>
                <mxCell id="260" value="\[f_0=\frac{v}{\lambda_0}=\frac{1}{2\ell}\sqrt{\frac{T}{\mu}}\]\[f_1=\frac{v}{\lambda_1}=\frac{2}{2\ell}\sqrt{\frac{T}{\mu}}=3f_0\]\[f_n=(n+1)f_0\]" style="rounded=1;whiteSpace=wrap;html=1;shadow=0;labelBackgroundColor=none;strokeColor=none;strokeWidth=3;fontFamily=Helvetica;fontSize=14;align=center;spacing=5;fontStyle=0;arcSize=7;perimeterSpacing=2;fontColor=#000000;fillColor=#f08e81;" vertex="1" parent="259">
                    <mxGeometry x="9" y="30" width="321" height="190" as="geometry"/>
                </mxCell>
                <mxCell id="53" value="" style="edgeStyle=none;rounded=1;jumpStyle=none;html=1;shadow=0;labelBackgroundColor=none;startArrow=none;startFill=0;jettySize=auto;orthogonalLoop=1;strokeColor=#E85642;strokeWidth=3;fontFamily=Helvetica;fontSize=14;fontColor=#FFFFFF;spacing=5;fontStyle=1;fillColor=#b0e3e6;exitX=0;exitY=0.75;exitDx=0;exitDy=0;entryX=1;entryY=0;entryDx=0;entryDy=0;" parent="1" source="9" target="30" edge="1">
                    <mxGeometry relative="1" as="geometry">
                        <mxPoint x="850.3587786259545" y="823" as="sourcePoint"/>
                        <mxPoint x="773.6412213740459" y="756" as="targetPoint"/>
                    </mxGeometry>
                </mxCell>
                <mxCell id="54" value="Wave Equations" style="swimlane;gradientColor=none;strokeColor=#61C6CE;startSize=23;fillColor=#00BFBF;fontColor=#000000;" parent="1" vertex="1">
                    <mxGeometry x="1610" y="870" width="550" height="280" as="geometry"/>
                </mxCell>
                <mxCell id="55" value="Progressive Wave:\[y=a\sin(\omega t-kx)=a\sin(\frac{2\pi t}{T}-\frac{2\pi}{\lambda}x)\]" style="rounded=1;whiteSpace=wrap;html=1;shadow=0;labelBackgroundColor=none;strokeColor=none;strokeWidth=3;fillColor=#61c6ce;fontFamily=Helvetica;fontSize=14;align=center;spacing=5;fontStyle=0;arcSize=7;perimeterSpacing=2;fontColor=#000000;" parent="54" vertex="1">
                    <mxGeometry x="9" y="30" width="531" height="100" as="geometry"/>
                </mxCell>
                <mxCell id="203" value="Standing Wave:\[y=a\cos kx\sin\omega t\]\[kx=n\pi\rightarrow antinodes\quad kx=(n+\frac{1}{2})\pi\rightarrow nodes\]" style="rounded=1;whiteSpace=wrap;html=1;shadow=0;labelBackgroundColor=none;strokeColor=none;strokeWidth=3;fillColor=#61c6ce;fontFamily=Helvetica;fontSize=14;align=center;spacing=5;fontStyle=0;arcSize=7;perimeterSpacing=2;fontColor=#000000;" vertex="1" parent="54">
                    <mxGeometry x="9" y="140" width="531" height="130" as="geometry"/>
                </mxCell>
                <mxCell id="58" value="Comparison" style="swimlane;gradientColor=none;strokeColor=#61C6CE;startSize=23;fillColor=#00BFBF;fontColor=#000000;" parent="1" vertex="1">
                    <mxGeometry x="1560" y="1200" width="690" height="350" as="geometry"/>
                </mxCell>
                <mxCell id="205" value="Progressive Wave" style="swimlane;gradientColor=none;strokeColor=#61C6CE;startSize=23;fillColor=#00BFBF;fontColor=#000000;" vertex="1" parent="58">
                    <mxGeometry x="10" y="30" width="330" height="310" as="geometry"/>
                </mxCell>
                <mxCell id="206" value="Energy transferred along direction of propogation" style="rounded=1;whiteSpace=wrap;html=1;shadow=0;labelBackgroundColor=none;strokeColor=none;strokeWidth=3;fillColor=#61c6ce;fontFamily=Helvetica;fontSize=14;align=center;spacing=5;fontStyle=0;arcSize=7;perimeterSpacing=2;fontColor=#000000;" vertex="1" parent="205">
                    <mxGeometry x="10" y="28" width="310" height="52" as="geometry"/>
                </mxCell>
                <mxCell id="208" value="Wave profile move in direction of propogation" style="rounded=1;whiteSpace=wrap;html=1;shadow=0;labelBackgroundColor=none;strokeColor=none;strokeWidth=3;fillColor=#61c6ce;fontFamily=Helvetica;fontSize=14;align=center;spacing=5;fontStyle=0;arcSize=7;perimeterSpacing=2;fontColor=#000000;" vertex="1" parent="205">
                    <mxGeometry x="10" y="88" width="310" height="52" as="geometry"/>
                </mxCell>
                <mxCell id="210" value="Every point along direction of propogation is displaced but at different instant" style="rounded=1;whiteSpace=wrap;html=1;shadow=0;labelBackgroundColor=none;strokeColor=none;strokeWidth=3;fillColor=#61c6ce;fontFamily=Helvetica;fontSize=14;align=center;spacing=5;fontStyle=0;arcSize=7;perimeterSpacing=2;fontColor=#000000;" vertex="1" parent="205">
                    <mxGeometry x="10" y="148" width="310" height="52" as="geometry"/>
                </mxCell>
                <mxCell id="212" value="Every point has same amplitude and frequency" style="rounded=1;whiteSpace=wrap;html=1;shadow=0;labelBackgroundColor=none;strokeColor=none;strokeWidth=3;fillColor=#61c6ce;fontFamily=Helvetica;fontSize=14;align=center;spacing=5;fontStyle=0;arcSize=7;perimeterSpacing=2;fontColor=#000000;" vertex="1" parent="205">
                    <mxGeometry x="10" y="208" width="310" height="42" as="geometry"/>
                </mxCell>
                <mxCell id="222" value="Neighbouring points are not in phase" style="rounded=1;whiteSpace=wrap;html=1;shadow=0;labelBackgroundColor=none;strokeColor=none;strokeWidth=3;fillColor=#61c6ce;fontFamily=Helvetica;fontSize=14;align=center;spacing=5;fontStyle=0;arcSize=7;perimeterSpacing=2;fontColor=#000000;" vertex="1" parent="205">
                    <mxGeometry x="10" y="260" width="310" height="42" as="geometry"/>
                </mxCell>
                <mxCell id="213" value="Standing Wave" style="swimlane;gradientColor=none;strokeColor=#61C6CE;startSize=23;fillColor=#00BFBF;fontColor=#000000;" vertex="1" parent="58">
                    <mxGeometry x="350" y="30" width="330" height="310" as="geometry"/>
                </mxCell>
                <mxCell id="223" value="No energy transferred along direction of propogation" style="rounded=1;whiteSpace=wrap;html=1;shadow=0;labelBackgroundColor=none;strokeColor=none;strokeWidth=3;fillColor=#61c6ce;fontFamily=Helvetica;fontSize=14;align=center;spacing=5;fontStyle=0;arcSize=7;perimeterSpacing=2;fontColor=#000000;" vertex="1" parent="213">
                    <mxGeometry x="9.999999999999892" y="28" width="310" height="52" as="geometry"/>
                </mxCell>
                <mxCell id="224" value="Wave profile does not move in direction of propogation" style="rounded=1;whiteSpace=wrap;html=1;shadow=0;labelBackgroundColor=none;strokeColor=none;strokeWidth=3;fillColor=#61c6ce;fontFamily=Helvetica;fontSize=14;align=center;spacing=5;fontStyle=0;arcSize=7;perimeterSpacing=2;fontColor=#000000;" vertex="1" parent="213">
                    <mxGeometry x="9.999999999999892" y="88" width="310" height="52" as="geometry"/>
                </mxCell>
                <mxCell id="225" value="Points known as nodes where no displacement occur" style="rounded=1;whiteSpace=wrap;html=1;shadow=0;labelBackgroundColor=none;strokeColor=none;strokeWidth=3;fillColor=#61c6ce;fontFamily=Helvetica;fontSize=14;align=center;spacing=5;fontStyle=0;arcSize=7;perimeterSpacing=2;fontColor=#000000;" vertex="1" parent="213">
                    <mxGeometry x="9.999999999999892" y="148" width="310" height="52" as="geometry"/>
                </mxCell>
                <mxCell id="226" value="Points between two successive nodes have different amplitude" style="rounded=1;whiteSpace=wrap;html=1;shadow=0;labelBackgroundColor=none;strokeColor=none;strokeWidth=3;fillColor=#61c6ce;fontFamily=Helvetica;fontSize=14;align=center;spacing=5;fontStyle=0;arcSize=7;perimeterSpacing=2;fontColor=#000000;" vertex="1" parent="213">
                    <mxGeometry x="9.999999999999892" y="208" width="310" height="42" as="geometry"/>
                </mxCell>
                <mxCell id="227" value="All points between two successive nodes vibrate in phase with each other" style="rounded=1;whiteSpace=wrap;html=1;shadow=0;labelBackgroundColor=none;strokeColor=none;strokeWidth=3;fillColor=#61c6ce;fontFamily=Helvetica;fontSize=14;align=center;spacing=5;fontStyle=0;arcSize=7;perimeterSpacing=2;fontColor=#000000;" vertex="1" parent="213">
                    <mxGeometry x="9.999999999999892" y="260" width="310" height="42" as="geometry"/>
                </mxCell>
                <mxCell id="77" value="" style="edgeStyle=none;rounded=1;jumpStyle=none;html=1;shadow=0;labelBackgroundColor=none;startArrow=none;startFill=0;jettySize=auto;orthogonalLoop=1;strokeColor=#12AAB5;strokeWidth=3;fontFamily=Helvetica;fontSize=14;fontColor=#FFFFFF;spacing=5;fontStyle=1;fillColor=#b0e3e6;entryX=0;entryY=0;entryDx=0;entryDy=0;exitX=1;exitY=1;exitDx=0;exitDy=0;" parent="1" source="12" target="58" edge="1">
                    <mxGeometry relative="1" as="geometry">
                        <mxPoint x="1425" y="980" as="targetPoint"/>
                        <mxPoint x="1456.248" y="887" as="sourcePoint"/>
                    </mxGeometry>
                </mxCell>
                <mxCell id="78" value="" style="edgeStyle=none;rounded=1;jumpStyle=none;html=1;shadow=0;labelBackgroundColor=none;startArrow=none;startFill=0;jettySize=auto;orthogonalLoop=1;strokeColor=#12AAB5;strokeWidth=3;fontFamily=Helvetica;fontSize=14;fontColor=#FFFFFF;spacing=5;fontStyle=1;fillColor=#b0e3e6;entryX=0;entryY=0;entryDx=0;entryDy=0;exitX=1;exitY=0.75;exitDx=0;exitDy=0;" parent="1" source="12" target="54" edge="1">
                    <mxGeometry relative="1" as="geometry">
                        <mxPoint x="1920" y="942.5" as="targetPoint"/>
                        <mxPoint x="1544" y="871" as="sourcePoint"/>
                    </mxGeometry>
                </mxCell>
                <mxCell id="228" value="Velocity" style="swimlane;gradientColor=none;startSize=23;fontColor=#000000;fillColor=#DE7A73;strokeColor=#DE7A73;" vertex="1" parent="1">
                    <mxGeometry x="110" y="140" width="490" height="220" as="geometry"/>
                </mxCell>
                <mxCell id="229" value="\[v_\theta=v_0+0.6\theta\quad when\ P=1atm,v_0=331.1ms^{-1}&lt;br&gt;&amp;nbsp;\]" style="rounded=1;whiteSpace=wrap;html=1;shadow=0;labelBackgroundColor=none;strokeColor=none;strokeWidth=3;fontFamily=Helvetica;fontSize=14;align=center;spacing=5;fontStyle=0;arcSize=7;perimeterSpacing=2;fontColor=#000000;fillColor=#f08e81;" vertex="1" parent="228">
                    <mxGeometry x="9" y="30" width="471" height="50" as="geometry"/>
                </mxCell>
                <mxCell id="231" value="Solid" style="swimlane;gradientColor=none;startSize=23;fontColor=#000000;fillColor=#DE7A73;strokeColor=#DE7A73;" vertex="1" parent="228">
                    <mxGeometry x="9" y="90" width="150" height="120" as="geometry"/>
                </mxCell>
                <mxCell id="233" value="\[v=\sqrt{\frac{E}{\rho}}\]" style="rounded=1;whiteSpace=wrap;html=1;shadow=0;labelBackgroundColor=none;strokeColor=none;strokeWidth=3;fontFamily=Helvetica;fontSize=14;align=center;spacing=5;fontStyle=0;arcSize=7;perimeterSpacing=2;fontColor=#000000;fillColor=#f08e81;" vertex="1" parent="231">
                    <mxGeometry x="9.5" y="30" width="130.5" height="80" as="geometry"/>
                </mxCell>
                <mxCell id="236" value="Gas" style="swimlane;gradientColor=none;startSize=23;fontColor=#000000;fillColor=#DE7A73;strokeColor=#DE7A73;" vertex="1" parent="228">
                    <mxGeometry x="330" y="90" width="150" height="120" as="geometry"/>
                </mxCell>
                <mxCell id="237" value="\[v=\sqrt{\frac{\gamma P}{\rho}}\]" style="rounded=1;whiteSpace=wrap;html=1;shadow=0;labelBackgroundColor=none;strokeColor=none;strokeWidth=3;fontFamily=Helvetica;fontSize=14;align=center;spacing=5;fontStyle=0;arcSize=7;perimeterSpacing=2;fontColor=#000000;fillColor=#f08e81;" vertex="1" parent="236">
                    <mxGeometry x="9.5" y="30" width="130.5" height="80" as="geometry"/>
                </mxCell>
                <mxCell id="234" value="Liquid" style="swimlane;gradientColor=none;startSize=23;fontColor=#000000;fillColor=#DE7A73;strokeColor=#DE7A73;" vertex="1" parent="228">
                    <mxGeometry x="170" y="90" width="150" height="120" as="geometry"/>
                </mxCell>
                <mxCell id="235" value="\[v=\sqrt{\frac{B}{\rho}}\]" style="rounded=1;whiteSpace=wrap;html=1;shadow=0;labelBackgroundColor=none;strokeColor=none;strokeWidth=3;fontFamily=Helvetica;fontSize=14;align=center;spacing=5;fontStyle=0;arcSize=7;perimeterSpacing=2;fontColor=#000000;fillColor=#f08e81;" vertex="1" parent="234">
                    <mxGeometry x="9.5" y="30" width="130.5" height="80" as="geometry"/>
                </mxCell>
                <mxCell id="238" value="" style="edgeStyle=none;rounded=1;jumpStyle=none;html=1;shadow=0;labelBackgroundColor=none;startArrow=none;startFill=0;jettySize=auto;orthogonalLoop=1;strokeColor=#E85642;strokeWidth=3;fontFamily=Helvetica;fontSize=14;fontColor=#FFFFFF;spacing=5;fontStyle=1;fillColor=#b0e3e6;entryX=1;entryY=1;entryDx=0;entryDy=0;exitX=0.25;exitY=0;exitDx=0;exitDy=0;" edge="1" parent="1" source="9" target="228">
                    <mxGeometry relative="1" as="geometry">
                        <mxPoint x="679" y="795" as="targetPoint"/>
                        <mxPoint x="810" y="832.7884615384614" as="sourcePoint"/>
                    </mxGeometry>
                </mxCell>
                <mxCell id="246" value="Resonance Tube Experiment" style="swimlane;gradientColor=none;startSize=23;fontColor=#000000;fillColor=#DE7A73;strokeColor=#DE7A73;" vertex="1" parent="1">
                    <mxGeometry x="240" y="430" width="380" height="206" as="geometry"/>
                </mxCell>
                <mxCell id="247" value="\[\ell=\frac{v}{4}\times\frac{1}{f}-c\]" style="rounded=1;whiteSpace=wrap;html=1;shadow=0;labelBackgroundColor=none;strokeColor=none;strokeWidth=3;fontFamily=Helvetica;fontSize=14;align=center;spacing=5;fontStyle=0;arcSize=7;perimeterSpacing=2;fontColor=#000000;fillColor=#f08e81;" vertex="1" parent="246">
                    <mxGeometry x="9" y="30" width="361" height="50" as="geometry"/>
                </mxCell>
                <mxCell id="254" value="\[\ell+c=\frac{1}{4}\lambda\]\[\ell_1+c=\frac{3}{4}\lambda\]" style="rounded=1;whiteSpace=wrap;html=1;shadow=0;labelBackgroundColor=none;strokeColor=none;strokeWidth=3;fontFamily=Helvetica;fontSize=14;align=center;spacing=5;fontStyle=0;arcSize=7;perimeterSpacing=2;fontColor=#000000;fillColor=#f08e81;" vertex="1" parent="246">
                    <mxGeometry x="9" y="86" width="361" height="114" as="geometry"/>
                </mxCell>
                <mxCell id="255" value="" style="edgeStyle=none;rounded=1;jumpStyle=none;html=1;shadow=0;labelBackgroundColor=none;startArrow=none;startFill=0;jettySize=auto;orthogonalLoop=1;strokeColor=#E85642;strokeWidth=3;fontFamily=Helvetica;fontSize=14;fontColor=#FFFFFF;spacing=5;fontStyle=1;fillColor=#b0e3e6;entryX=1;entryY=0.75;entryDx=0;entryDy=0;exitX=0;exitY=0;exitDx=0;exitDy=0;" edge="1" parent="1" source="9" target="246">
                    <mxGeometry relative="1" as="geometry">
                        <mxPoint x="700" y="400" as="targetPoint"/>
                        <mxPoint x="848.5" y="823" as="sourcePoint"/>
                    </mxGeometry>
                </mxCell>
                <mxCell id="262" value="" style="edgeStyle=none;rounded=0;jumpStyle=none;html=1;shadow=0;labelBackgroundColor=none;startArrow=none;startFill=0;endArrow=classic;endFill=1;jettySize=auto;orthogonalLoop=1;strokeColor=#F08705;strokeWidth=3;fontFamily=Helvetica;fontSize=14;fontColor=#FFFFFF;spacing=5;entryX=0.5;entryY=1;entryDx=0;entryDy=0;exitX=0.5;exitY=0;exitDx=0;exitDy=0;" edge="1" parent="1" target="263" source="5">
                    <mxGeometry relative="1" as="geometry">
                        <mxPoint x="1285.8888888888891" y="602" as="targetPoint"/>
                        <mxPoint x="1157" y="673" as="sourcePoint"/>
                    </mxGeometry>
                </mxCell>
                <mxCell id="263" value="Doppler Effect" style="swimlane;gradientColor=none;startSize=23;fontColor=#000000;fillColor=#F0A729;strokeColor=#F0A729;" vertex="1" parent="1">
                    <mxGeometry x="942" y="580" width="430" height="120" as="geometry"/>
                </mxCell>
                <mxCell id="264" value="\[f'=\frac{v'}{\lambda'}=\frac{v+u_o}{v+u_s}f\]" style="rounded=1;whiteSpace=wrap;html=1;shadow=0;labelBackgroundColor=none;strokeColor=none;strokeWidth=3;fontFamily=Helvetica;fontSize=14;align=center;spacing=5;fontStyle=0;arcSize=7;perimeterSpacing=2;fontColor=#000000;fillColor=#f5af58;" vertex="1" parent="263">
                    <mxGeometry x="9" y="30" width="411" height="80" as="geometry"/>
                </mxCell>
            </root>
        </mxGraphModel>
    </diagram>
</mxfile>